<?xml version="1.0" encoding="UTF-8"?>
<svg version="1.1" xmlns="http://www.w3.org/2000/svg" width="640" height="640">
<path d="M0 0 C211.2 0 422.4 0 640 0 C640 211.2 640 422.4 640 640 C428.8 640 217.6 640 0 640 C0 428.8 0 217.6 0 0 Z " fill="#000000" transform="translate(0,0)"/>
<path d="M0 0 C0 40.26 0 80.52 0 122 C-11.25503464 118.62348961 -11.25503464 118.62348961 -16.6796875 116.4765625 C-17.85660156 116.0125 -19.03351563 115.5484375 -20.24609375 115.0703125 C-21.44363281 114.59335937 -22.64117187 114.11640625 -23.875 113.625 C-25.06480469 113.15578125 -26.25460937 112.6865625 -27.48046875 112.203125 C-35.02559035 109.2180605 -42.50707126 106.12205364 -50 103 C-50 73.96 -50 44.92 -50 15 C-45.71 13.68 -41.42 12.36 -37 11 C-34.21142323 10.08094837 -31.42955247 9.15439003 -28.65234375 8.203125 C-27.20907018 7.7145902 -25.76570843 7.22631582 -24.32226562 6.73828125 C-22.10948898 5.98822943 -19.89741519 5.2362862 -17.68676758 4.47998047 C-15.51042819 3.73642355 -13.33164685 3.00044229 -11.15234375 2.265625 C-10.49193588 2.03756165 -9.83152802 1.80949829 -9.15110779 1.57452393 C-5.86623063 0.4733151 -3.52040175 0 0 0 Z " fill="#F9F9F9" transform="translate(320,233)"/>
<path d="M0 0 C5.79331622 1.93110541 11.58187937 3.87052859 17.359375 5.84765625 C18.11164368 6.1050206 18.86391235 6.36238495 19.63897705 6.62754822 C21.21202816 7.16595378 22.78500526 7.70457565 24.35791016 8.2434082 C26.75773486 9.06514855 29.15816166 9.88511402 31.55859375 10.70507812 C33.09639166 11.23166135 34.63415336 11.75835034 36.171875 12.28515625 C36.88341736 12.52790787 37.59495972 12.77065948 38.32806396 13.02076721 C41.93328136 14.25821165 45.45759074 15.58303629 49 17 C49 46.04 49 75.08 49 105 C3.23076923 122 3.23076923 122 0 122 C0 81.74 0 41.48 0 0 Z " fill="#FDB65A" transform="translate(323,232)"/>
<path d="M0 0 C5.95273178 0.55341402 10.44905161 2.1675748 15.73242188 4.89013672 C17.39872426 5.71382884 19.06678951 6.53396151 20.73632812 7.35107422 C22.06301514 8.00221191 22.06301514 8.00221191 23.41650391 8.66650391 C28.44517273 11.07489359 33.55882971 13.2884681 38.66992188 15.51513672 C47.39677361 19.32770928 56.10176303 23.18238555 64.77709961 27.11083984 C70.8791604 29.87087506 76.99982807 32.55987249 83.23242188 35.01513672 C83.23242188 36.00513672 83.23242188 36.99513672 83.23242188 38.01513672 C80.26242187 38.51013672 80.26242187 38.51013672 77.23242188 39.01513672 C76.90242187 48.58513672 76.57242188 58.15513672 76.23242188 68.01513672 C74.58242188 67.68513672 72.93242187 67.35513672 71.23242188 67.01513672 C71.23242188 58.76513672 71.23242188 50.51513672 71.23242188 42.01513672 C64.63242187 44.32513672 58.03242188 46.63513672 51.23242188 49.01513672 C50.90242187 51.98513672 50.57242188 54.95513672 50.23242188 58.01513672 C46.19815713 59.0237029 45.55854898 59.07474562 41.94213867 57.73583984 C41.1041423 57.43222534 40.26614594 57.12861084 39.40275574 56.8157959 C38.05580376 56.31118835 38.05580376 56.31118835 36.68164062 55.79638672 C34.76700565 55.10476293 32.85228954 54.41336371 30.9375 53.72216797 C27.927216 52.62095831 24.91887884 51.51475114 21.91235352 50.40332031 C19.0067468 49.3335992 16.0947536 48.28296068 13.18164062 47.23388672 C12.28974533 46.89748169 11.39785004 46.56107666 10.47892761 46.21447754 C2.17472405 43.23935435 -3.80632786 44.80865211 -11.86132812 47.70263672 C-12.61168335 47.96520264 -13.36203857 48.22776855 -14.13513184 48.49829102 C-16.51480559 49.33115827 -18.89149386 50.17208792 -21.26757812 51.01513672 C-24.40045399 52.12669967 -27.53615598 53.22969572 -30.67382812 54.32763672 C-31.73506897 54.70891724 -31.73506897 54.70891724 -32.81774902 55.09790039 C-37.14614156 56.61146111 -41.20727717 57.5094282 -45.76757812 58.01513672 C-46.26257813 54.05513672 -46.26257813 54.05513672 -46.76757812 50.01513672 C-57.65757812 45.72513672 -68.54757813 41.43513672 -79.76757812 37.01513672 C-79.76757812 36.35513672 -79.76757812 35.69513672 -79.76757812 35.01513672 C-79.11200928 34.72493652 -78.45644043 34.43473633 -77.78100586 34.13574219 C-66.75250302 29.25088898 -55.72453886 24.36590437 -44.74023438 19.38232422 C-44.07919205 19.08246109 -43.41814972 18.78259796 -42.73707581 18.47364807 C-41.40790634 17.87061146 -40.07874878 17.26754863 -38.74960327 16.66445923 C-38.09553497 16.3676828 -37.44146667 16.07090637 -36.76757812 15.76513672 C-36.11455719 15.46876312 -35.46153625 15.17238953 -34.78872681 14.86703491 C-25.92800549 10.84925086 -17.0354853 6.92743846 -8.03320312 3.23486328 C-0.1707407 0.00146214 -0.1707407 0.00146214 0 0 Z " fill="#FAB45C" transform="translate(319.767578125,183.98486328125)"/>
<path d="M0 0 C3.63 0 7.26 0 11 0 C11 18.15 11 36.3 11 55 C7.37 55 3.74 55 0 55 C-0.33 54.01 -0.66 53.02 -1 52 C-1.598125 52.474375 -2.19625 52.94875 -2.8125 53.4375 C-7.18418997 56.5601357 -11.81845306 56.72222534 -17 56 C-23.45127757 53.53908485 -27.03517174 49.08235154 -30 43 C-31.89340495 37.31978516 -31.92131907 31.25898331 -29.4375 25.75 C-26.7965715 21.08341307 -22.79472414 17.39736207 -18 15 C-11.95425646 14.43457075 -7.24365387 14.63868342 -2 18 C-1.67 18.33 -1.34 18.66 -1 19 C-0.67 12.73 -0.34 6.46 0 0 Z " fill="#F3F3F3" transform="translate(330,396)"/>
<path d="M0 0 C1.98567708 1.49739583 3.97135417 2.99479167 5.95703125 4.4921875 C7.60456297 5.70814781 9.29624211 6.86416141 11 8 C11.36076355 10.32852173 11.36076355 10.32852173 11.34057617 13.27587891 C11.34034958 14.3768692 11.34012299 15.4778595 11.33988953 16.61221313 C11.32440567 17.80494843 11.30892181 18.99768372 11.29296875 20.2265625 C11.28872391 21.44451508 11.28447906 22.66246765 11.28010559 23.91732788 C11.26326831 27.82010704 11.22560595 31.72237604 11.1875 35.625 C11.17245974 38.26561756 11.15877019 40.90624319 11.14648438 43.546875 C11.11334811 50.03144756 11.06153045 56.51563719 11 63 C4.07 63 -2.86 63 -10 63 C-10.24781645 55.31387742 -10.42894733 47.6300946 -10.54931641 39.94091797 C-10.59950499 37.32755007 -10.66767414 34.71446159 -10.75439453 32.10205078 C-10.87617991 28.33816614 -10.93251001 24.578 -10.9765625 20.8125 C-11.02817535 19.65073242 -11.07978821 18.48896484 -11.13296509 17.29199219 C-11.13638971 12.30209133 -11.11457099 9.25066941 -7.70721436 5.42724609 C-5.21859131 3.42427628 -2.733168 1.64962407 0 0 Z " fill="#F3F3F3" transform="translate(390,275)"/>
<path d="M0 0 C1.79296875 1.16796875 1.79296875 1.16796875 2.79296875 4.16796875 C1.72041998 6.68495507 0.24493423 8.8360242 -1.20703125 11.16796875 C-1.99013672 10.843125 -1.99013672 10.843125 -2.7890625 10.51171875 C-8.96300024 8.17621866 -14.62281051 7.55657682 -21.20703125 8.16796875 C-22.56321624 9.2933098 -22.56321624 9.2933098 -22.26953125 12.23046875 C-22.24890625 13.19984375 -22.22828125 14.16921875 -22.20703125 15.16796875 C-18.10440933 17.34903131 -14.17937438 18.86492595 -9.70703125 20.10546875 C-3.40103697 21.98935758 1.04002162 23.53854805 4.79296875 29.16796875 C5.49114598 34.33935125 5.399071 38.8345438 3.23046875 43.60546875 C-1.12204921 48.18119276 -6.10142695 50.79342239 -12.43359375 51.37109375 C-21.41844912 51.54669353 -29.0186986 49.65380156 -36.20703125 44.16796875 C-35.08251398 41.19603025 -33.98409334 38.83356188 -32.20703125 36.16796875 C-26.56768699 38.00403432 -26.56768699 38.00403432 -23.88671875 39.22265625 C-20.79107298 40.31470622 -18.29522292 40.43424548 -15.01953125 40.41796875 C-13.45138672 40.42570312 -13.45138672 40.42570312 -11.8515625 40.43359375 C-9.05121604 40.43408566 -9.05121604 40.43408566 -7.20703125 38.16796875 C-7.04022016 35.08449049 -7.04022016 35.08449049 -7.20703125 32.16796875 C-8.26921875 31.93722656 -9.33140625 31.70648438 -10.42578125 31.46875 C-26.91421605 27.7290849 -26.91421605 27.7290849 -33.20703125 21.04296875 C-35.23658464 15.20800276 -35.17499888 9.38622791 -32.70703125 3.73046875 C-23.81307808 -5.38583325 -11.20522604 -4.77090375 0 0 Z " fill="#F5F5F5" transform="translate(209.20703125,400.83203125)"/>
<path d="M0 0 C0.80993408 0.28713364 1.61986816 0.57426727 2.4543457 0.87010193 C5.01401606 1.77949675 7.56949083 2.7000788 10.125 3.62109375 C11.87082761 4.24358545 13.61691911 4.86533758 15.36328125 5.48632812 C19.62028555 7.00188501 23.87356715 8.5274811 28.125 10.05859375 C26.805 10.38859375 25.485 10.71859375 24.125 11.05859375 C24.62 11.55359375 24.62 11.55359375 25.125 12.05859375 C25.125 12.71859375 25.125 13.37859375 25.125 14.05859375 C17.48108802 12.10035926 10.0861103 9.73312254 2.6875 6.99609375 C1.72134766 6.64482422 0.75519531 6.29355469 -0.24023438 5.93164062 C-4.25292116 4.46060022 -8.04390356 2.97414197 -11.875 1.05859375 C-11.875 41.31859375 -11.875 81.57859375 -11.875 123.05859375 C-1.241345 119.27870668 -1.241345 119.27870668 9.328125 115.34765625 C10.49214844 114.90808594 11.65617187 114.46851563 12.85546875 114.015625 C15.25058902 113.10914774 17.64375246 112.19748689 20.03515625 111.28125 C21.75798828 110.63349609 21.75798828 110.63349609 23.515625 109.97265625 C24.54719727 109.58029785 25.57876953 109.18793945 26.64160156 108.78369141 C29.125 108.05859375 29.125 108.05859375 31.125 109.05859375 C30.135 109.71859375 29.145 110.37859375 28.125 111.05859375 C28.785 111.38859375 29.445 111.71859375 30.125 112.05859375 C30.125 113.04859375 30.125 114.03859375 30.125 115.05859375 C27.14672432 116.16517369 24.16721615 117.26839909 21.1875 118.37109375 C20.35669922 118.67982422 19.52589844 118.98855469 18.66992188 119.30664062 C14.61516794 120.80547963 10.55899391 122.2565721 6.4453125 123.5859375 C1.24476919 125.29466293 -3.59276172 127.61578783 -8.54296875 129.94921875 C-14.48141132 131.926379 -19.35292977 129.64929369 -24.99609375 127.44140625 C-25.99057274 127.05467239 -25.99057274 127.05467239 -27.00514221 126.66012573 C-29.10974563 125.84000163 -31.21106751 125.01180396 -33.3125 124.18359375 C-34.71920452 123.63491255 -36.126104 123.08673092 -37.53320312 122.5390625 C-43.6884966 120.1356527 -49.81155543 117.68532517 -55.875 115.05859375 C-55.875 114.06859375 -55.875 113.07859375 -55.875 112.05859375 C-51.52828707 113.47226634 -47.2614361 115.03120016 -43 116.68359375 C-41.27136719 117.35261719 -41.27136719 117.35261719 -39.5078125 118.03515625 C-38.63898438 118.37289062 -37.77015625 118.710625 -36.875 119.05859375 C-36.38 117.57359375 -36.38 117.57359375 -35.875 116.05859375 C-33.31224147 117.0162403 -30.74978711 117.97468735 -28.1875 118.93359375 C-27.46626953 119.20300781 -26.74503906 119.47242188 -26.00195312 119.75 C-25.29619141 120.01425781 -24.59042969 120.27851563 -23.86328125 120.55078125 C-22.89708862 120.91212158 -22.89708862 120.91212158 -21.91137695 121.28076172 C-19.55575447 122.18053551 -17.21626221 123.12208886 -14.875 124.05859375 C-14.875 83.79859375 -14.875 43.53859375 -14.875 2.05859375 C-24.775 5.35859375 -34.675 8.65859375 -44.875 12.05859375 C-46.195 12.05859375 -47.515 12.05859375 -48.875 12.05859375 C-48.875 11.39859375 -48.875 10.73859375 -48.875 10.05859375 C-49.535 9.39859375 -50.195 8.73859375 -50.875 8.05859375 C-46.18724821 6.30909604 -41.49182723 4.58275153 -36.78808594 2.87670898 C-35.19141301 2.29402998 -33.59695292 1.70524776 -32.00488281 1.11010742 C-29.70682199 0.25228935 -27.40151517 -0.58276117 -25.09375 -1.4140625 C-24.39133179 -1.68170914 -23.68891357 -1.94935577 -22.96520996 -2.22511292 C-14.72648067 -5.13639818 -7.89695173 -2.870701 0 0 Z " fill="#120602" transform="translate(334.875,230.94140625)"/>
<path d="M0 0 C4.32261661 2.08754702 8.1504153 4.02258954 11 8 C11.96549087 12.21520244 11.81629641 16.3120727 11.68359375 20.6171875 C11.67368912 21.82948029 11.66378448 23.04177307 11.65357971 24.290802 C11.61447179 28.15344458 11.52664388 32.01321994 11.4375 35.875 C11.40238207 38.49735473 11.37044393 41.1197541 11.34179688 43.7421875 C11.26471926 50.16255893 11.14394967 56.58079378 11 63 C4.4 63 -2.2 63 -9 63 C-9.22303612 55.31383202 -9.38606013 47.62955996 -9.49438477 39.94091797 C-9.53955313 37.32762836 -9.60090364 34.71456504 -9.67895508 32.10205078 C-9.78855805 28.33829906 -9.83926364 24.57756022 -9.87890625 20.8125 C-9.92535782 19.65073242 -9.97180939 18.48896484 -10.01966858 17.29199219 C-10.02461898 9.27748167 -10.02461898 9.27748167 -6.93649292 5.42724609 C-4.70917746 3.43540583 -2.47984908 1.66303504 0 0 Z " fill="#FAFAFA" transform="translate(252,275)"/>
<path d="M0 0 C4.92545105 2.63127708 7.27806728 6.43621344 9.7421875 11.33203125 C10.5546875 14.22265625 10.5546875 14.22265625 10.5546875 23.22265625 C1.3146875 23.55265625 -7.9253125 23.88265625 -17.4453125 24.22265625 C-15.12279824 29.1076115 -15.12279824 29.1076115 -12.4453125 30.22265625 C-10.36966574 30.42023856 -10.36966574 30.42023856 -8.0703125 30.41015625 C-7.29945313 30.42433594 -6.52859375 30.43851562 -5.734375 30.453125 C-3.21754889 30.19972442 -1.65589315 29.4053873 0.5546875 28.22265625 C2.6171875 28.28515625 2.6171875 28.28515625 4.5546875 29.22265625 C6.3046875 31.78515625 6.3046875 31.78515625 7.5546875 34.22265625 C1.59678203 39.47963167 -3.81050673 40.76125923 -11.625 40.6015625 C-17.73518694 39.78066481 -22.04481538 36.94634501 -25.8828125 32.22265625 C-29.46761856 25.33982861 -30.48610368 20.21942495 -28.2578125 12.59765625 C-26.75847868 8.47098513 -24.89284538 6.02878766 -21.4453125 3.22265625 C-20.6203125 2.45953125 -19.7953125 1.69640625 -18.9453125 0.91015625 C-12.97464297 -1.96855942 -6.32302376 -2.01003471 0 0 Z " fill="#F2F2F2" transform="translate(377.4453125,411.77734375)"/>
<path d="M0 0 C3.63 0 7.26 0 11 0 C11.01458252 0.77190674 11.02916504 1.54381348 11.04418945 2.33911133 C11.11858033 5.83075093 11.2152709 9.3214249 11.3125 12.8125 C11.33505859 14.02744141 11.35761719 15.24238281 11.38085938 16.49414062 C11.41630859 17.65751953 11.45175781 18.82089844 11.48828125 20.01953125 C11.51446533 21.09307861 11.54064941 22.16662598 11.56762695 23.27270508 C11.78733875 26.0051998 11.78733875 26.0051998 13.35229492 27.8425293 C16.0206947 29.71701194 17.83307906 29.50670735 21 29 C23.49992918 27.33461143 24.5612862 26.54301307 26 24 C26.76125183 19.90112527 26.79061411 15.84825092 26.8125 11.6875 C26.83763672 10.56537109 26.86277344 9.44324219 26.88867188 8.28710938 C26.9474377 5.52511543 26.97660684 2.76252 27 0 C30.63 0 34.26 0 38 0 C38 12.87 38 25.74 38 39 C34.7 39 31.4 39 28 39 C27.67 37.68 27.34 36.36 27 35 C25.824375 35.9590625 25.824375 35.9590625 24.625 36.9375 C20.49742644 40.18059351 17.76796444 40.40338687 12.609375 40.34375 C8.52417569 39.80558003 5.70177446 38.08159952 3 35 C0.34826585 30.4978935 -0.36203392 27.27322188 -0.29296875 22.0703125 C-0.28330078 20.78125 -0.27363281 19.4921875 -0.26367188 18.1640625 C-0.23861188 16.81770214 -0.21321712 15.47134797 -0.1875 14.125 C-0.17243504 12.75522295 -0.15874982 11.38542998 -0.14648438 10.015625 C-0.11121379 6.67667642 -0.06191896 3.33854325 0 0 Z " fill="#F4F3F3" transform="translate(253,412)"/>
<path d="M0 0 C5.27363154 1.75787718 7.32754973 4.19730525 10 9 C10.45410156 12.52685547 10.45410156 12.52685547 10.390625 16.3671875 C10.38496521 17.04677521 10.37930542 17.72636292 10.37347412 18.42654419 C10.35125351 20.57677549 10.30109198 22.72528074 10.25 24.875 C10.22991614 26.3411216 10.21166868 27.80726958 10.1953125 29.2734375 C10.15143811 32.84951008 10.08251443 36.42458631 10 40 C6.37 40 2.74 40 -1 40 C-1.0093457 39.19780029 -1.01869141 38.39560059 -1.02832031 37.5690918 C-1.08193742 33.94126361 -1.16560298 30.31473708 -1.25 26.6875 C-1.26417969 25.42486328 -1.27835937 24.16222656 -1.29296875 22.86132812 C-1.32519531 21.65283203 -1.35742188 20.44433594 -1.390625 19.19921875 C-1.41157227 18.08377686 -1.43251953 16.96833496 -1.45410156 15.8190918 C-1.74515844 12.91003459 -1.74515844 12.91003459 -3.85058594 11.14379883 C-6.83718709 9.55449551 -8.66750853 9.44458476 -12 10 C-15.54009361 13.55577553 -16.50741152 15.98631174 -16.609375 20.95703125 C-16.64160156 22.06884766 -16.67382812 23.18066406 -16.70703125 24.32617188 C-16.72830078 26.0519043 -16.72830078 26.0519043 -16.75 27.8125 C-16.77964844 28.98232422 -16.80929687 30.15214844 -16.83984375 31.35742188 C-16.91038637 34.23791219 -16.95747542 37.11895984 -17 40 C-20.63 40 -24.26 40 -28 40 C-28 27.13 -28 14.26 -28 1 C-24.7 1 -21.4 1 -18 1 C-17.67 2.32 -17.34 3.64 -17 5 C-16.21625 4.360625 -15.4325 3.72125 -14.625 3.0625 C-9.87543395 -0.6693019 -5.89317595 -0.48958692 0 0 Z " fill="#F3F3F3" transform="translate(423,411)"/>
<path d="M0 0 C3.63 0 7.26 0 11 0 C11 3.63 11 7.26 11 11 C14.3 11 17.6 11 21 11 C21 13.97 21 16.94 21 20 C17.7 20 14.4 20 11 20 C11.33 26.6 11.66 33.2 12 40 C16.71058562 41.3721042 16.71058562 41.3721042 20 40 C21.19164995 42.523494 22.0358641 44.37237823 21.875 47.1875 C20.692826 49.63628901 19.4839436 49.97049956 17 51 C12.99297411 51.77029703 9.45188384 51.87813383 5.89453125 49.7265625 C3.45179768 47.66157124 1.43908643 45.87817285 0 43 C-0.08471364 41.18658158 -0.10721083 39.37005839 -0.09765625 37.5546875 C-0.09282227 35.94013672 -0.09282227 35.94013672 -0.08789062 34.29296875 C-0.07951172 33.16503906 -0.07113281 32.03710938 -0.0625 30.875 C-0.05798828 29.73933594 -0.05347656 28.60367187 -0.04882812 27.43359375 C-0.03701615 24.62234362 -0.02054507 21.8111977 0 19 C-1.98 19 -3.96 19 -6 19 C-6 16.36 -6 13.72 -6 11 C-4.02 11 -2.04 11 0 11 C0 7.37 0 3.74 0 0 Z " fill="#F3F3F3" transform="translate(445,401)"/>
<path d="M0 0 C5.95273178 0.55341402 10.44905161 2.1675748 15.73242188 4.89013672 C17.39872426 5.71382884 19.06678951 6.53396151 20.73632812 7.35107422 C22.06301514 8.00221191 22.06301514 8.00221191 23.41650391 8.66650391 C28.44517273 11.07489359 33.55882971 13.2884681 38.66992188 15.51513672 C47.39677361 19.32770928 56.10176303 23.18238555 64.77709961 27.11083984 C70.8791604 29.87087506 76.99982807 32.55987249 83.23242188 35.01513672 C83.23242188 36.00513672 83.23242188 36.99513672 83.23242188 38.01513672 C79.76742187 38.51013672 79.76742187 38.51013672 76.23242188 39.01513672 C75.90242187 38.02513672 75.57242188 37.03513672 75.23242188 36.01513672 C73.41603727 35.55562176 71.59591216 35.10848342 69.76464844 34.71240234 C64.45944743 33.25157954 59.5618639 30.62257569 54.60742188 28.26513672 C52.27605523 27.17127121 49.94402992 26.07880835 47.61132812 24.98779297 C46.50289551 24.46846191 45.39446289 23.94913086 44.25244141 23.4140625 C39.67673513 21.29451545 35.04467443 19.33342594 30.39648438 17.37841797 C26.70252581 15.78682348 23.06067584 14.09911716 19.41992188 12.39013672 C18.78820068 12.09518311 18.15647949 11.80022949 17.50561523 11.49633789 C14.81256751 10.23683004 12.12882744 8.96399701 9.46289062 7.64794922 C8.68558594 7.27412109 7.90828125 6.90029297 7.10742188 6.51513672 C6.46546875 6.19544922 5.82351563 5.87576172 5.16210938 5.54638672 C1.17525281 4.44879058 -2.65041052 6.2565557 -6.28320312 7.88623047 C-7.18522461 8.28712891 -8.08724609 8.68802734 -9.01660156 9.10107422 C-10.50208496 9.77009766 -10.50208496 9.77009766 -12.01757812 10.45263672 C-14.23600933 11.44163337 -16.4547865 12.42985419 -18.67382812 13.41748047 C-19.28409851 13.68978485 -19.8943689 13.96208923 -20.52313232 14.24264526 C-26.12343409 16.7383729 -31.74127971 19.19316433 -37.36132812 21.64404297 C-39.21910379 22.45525754 -41.07685106 23.26653711 -42.93457031 24.07788086 C-45.71958337 25.29418884 -48.50495058 26.50964242 -51.29162598 27.72213745 C-53.9256305 28.86872114 -56.55771475 30.01961293 -59.18945312 31.17138672 C-60.37710266 31.68645531 -60.37710266 31.68645531 -61.58874512 32.21192932 C-64.73348394 33.59193257 -67.6516931 34.94224848 -70.56542969 36.77490234 C-73.80507981 38.59945031 -76.24254983 37.77543694 -79.76757812 37.01513672 C-79.76757812 36.35513672 -79.76757812 35.69513672 -79.76757812 35.01513672 C-79.11200928 34.72493652 -78.45644043 34.43473633 -77.78100586 34.13574219 C-66.75250302 29.25088898 -55.72453886 24.36590437 -44.74023438 19.38232422 C-44.07919205 19.08246109 -43.41814972 18.78259796 -42.73707581 18.47364807 C-41.40790634 17.87061146 -40.07874878 17.26754863 -38.74960327 16.66445923 C-38.09553497 16.3676828 -37.44146667 16.07090637 -36.76757812 15.76513672 C-36.11455719 15.46876312 -35.46153625 15.17238953 -34.78872681 14.86703491 C-25.92800549 10.84925086 -17.0354853 6.92743846 -8.03320312 3.23486328 C-0.1707407 0.00146214 -0.1707407 0.00146214 0 0 Z " fill="#E8E9E9" transform="translate(319.767578125,183.98486328125)"/>
<path d="M0 0 C3.3 0 6.6 0 10 0 C10 3.63 10 7.26 10 11 C13.3 11 16.6 11 20 11 C20 13.64 20 16.28 20 19 C16.7 19 13.4 19 10 19 C10.33 26.26 10.66 33.52 11 41 C13.97 41 16.94 41 20 41 C20.66 43.31 21.32 45.62 22 48 C18.12575052 50.99941895 14.97318638 51.52187402 10.21875 51.35546875 C6.73276986 50.79697545 4.61799384 49.29872629 2 47 C-0.08511566 43.75215076 -0.23592764 41.17719793 -0.1953125 37.359375 C-0.18886719 36.28945313 -0.18242187 35.21953125 -0.17578125 34.1171875 C-0.15902344 33.00601563 -0.14226562 31.89484375 -0.125 30.75 C-0.11597656 29.62335938 -0.10695312 28.49671875 -0.09765625 27.3359375 C-0.07410658 24.55707635 -0.0412168 21.7786461 0 19 C-1.98 19 -3.96 19 -6 19 C-6 16.36 -6 13.72 -6 11 C-4.02 11 -2.04 11 0 11 C0 7.37 0 3.74 0 0 Z " fill="#FAFAFA" transform="translate(225,401)"/>
<path d="M0 0 C1.30420898 0.5578418 1.30420898 0.5578418 2.63476562 1.12695312 C3.54806641 1.52462891 4.46136719 1.92230469 5.40234375 2.33203125 C6.35044922 2.74130859 7.29855469 3.15058594 8.27539062 3.57226562 C13.97312142 6.05208677 19.538873 8.69575328 25.05859375 11.55078125 C30.47735477 14.18275089 36.0464892 16.46435566 41.59448242 18.80834961 C48.3210892 21.66610617 54.8740125 24.73089363 61.33984375 28.14453125 C61.33984375 28.80453125 61.33984375 29.46453125 61.33984375 30.14453125 C56.56135015 29.60036917 52.52310647 28.63222877 48.078125 26.80859375 C46.88968994 26.32624268 45.70125488 25.8438916 44.47680664 25.34692383 C43.85339386 25.08972565 43.22998108 24.83252747 42.587677 24.5675354 C40.62195287 23.75700005 38.65237066 22.95661277 36.68139648 22.15893555 C33.94200414 21.04978193 31.20385053 19.93766624 28.46679688 18.82275391 C21.9563053 16.17299688 15.43343083 13.55556553 8.90234375 10.95703125 C7.74323486 10.48797363 6.58412598 10.01891602 5.38989258 9.53564453 C4.30216553 9.10364746 3.21443848 8.67165039 2.09375 8.2265625 C0.67557983 7.65772339 0.67557983 7.65772339 -0.77124023 7.07739258 C-7.1529608 5.01666797 -11.24730442 4.90236443 -17.47265625 7.46875 C-18.11163849 7.72644669 -18.75062073 7.98414337 -19.40896606 8.24964905 C-20.78342245 8.80622667 -22.15487748 9.3702639 -23.52349854 9.94104004 C-25.68812804 10.84369555 -27.85989336 11.72658494 -30.03466797 12.60449219 C-33.05796711 13.82617611 -36.07833497 15.05470223 -39.09667969 16.28857422 C-45.63062617 18.95328259 -52.19332557 21.54343485 -58.76806641 24.10562134 C-60.74663409 24.87946474 -62.72102079 25.66332203 -64.6953125 26.44799805 C-65.90316406 26.92019775 -67.11101562 27.39239746 -68.35546875 27.87890625 C-69.93352295 28.50104004 -69.93352295 28.50104004 -71.54345703 29.13574219 C-74.9121032 30.22607949 -78.14827761 30.73929325 -81.66015625 31.14453125 C-81.66015625 30.48453125 -81.66015625 29.82453125 -81.66015625 29.14453125 C-65.01986654 21.67286111 -48.37847988 14.20369687 -31.6953125 6.828125 C-27.98005192 5.18381807 -24.27910159 3.51492213 -20.59375 1.8046875 C-19.85229736 1.46550293 -19.11084473 1.12631836 -18.34692383 0.77685547 C-16.46023238 -0.08773848 -14.57940558 -0.9651006 -12.69921875 -1.84375 C-7.97253605 -3.41728576 -4.44617004 -1.90853013 0 0 Z " fill="#140E09" transform="translate(329.66015625,190.85546875)"/>
<path d="M0 0 C0.99 0 1.98 0 3 0 C3 40.26 3 80.52 3 122 C12.28603871 119.47860922 12.28603871 119.47860922 21.2421875 116.3359375 C22.16658127 115.97962753 22.16658127 115.97962753 23.10964966 115.61611938 C25.03344622 114.87415297 26.95445362 114.12533492 28.875 113.375 C30.81715769 112.61805153 32.75990525 111.86281263 34.70462036 111.11245728 C36.45296733 110.43769565 38.19897241 109.75687509 39.94482422 109.07568359 C42.64057169 108.12654955 45.1867249 107.46964336 48 107 C47.01 107.99 46.02 108.98 45 110 C45.66 110.33 46.32 110.66 47 111 C47 111.99 47 112.98 47 114 C44.02172432 115.10657994 41.04221615 116.20980534 38.0625 117.3125 C37.23169922 117.62123047 36.40089844 117.92996094 35.54492188 118.24804688 C31.49016794 119.74688588 27.43399391 121.19797835 23.3203125 122.52734375 C18.11976919 124.23606918 13.28223828 126.55719408 8.33203125 128.890625 C2.39358868 130.86778525 -2.47792977 128.59069994 -8.12109375 126.3828125 C-9.11557274 125.99607864 -9.11557274 125.99607864 -10.13014221 125.60153198 C-12.23474563 124.78140788 -14.33606751 123.95321021 -16.4375 123.125 C-17.84420452 122.5763188 -19.251104 122.02813717 -20.65820312 121.48046875 C-26.8134966 119.07705895 -32.93655543 116.62673142 -39 114 C-39 113.01 -39 112.02 -39 111 C-34.65328707 112.41367259 -30.3864361 113.97260641 -26.125 115.625 C-24.39636719 116.29402344 -24.39636719 116.29402344 -22.6328125 116.9765625 C-21.76398438 117.31429687 -20.89515625 117.65203125 -20 118 C-19.505 116.515 -19.505 116.515 -19 115 C-16.43724147 115.95764655 -13.87478711 116.9160936 -11.3125 117.875 C-10.59126953 118.14441406 -9.87003906 118.41382813 -9.12695312 118.69140625 C-8.42119141 118.95566406 -7.71542969 119.21992188 -6.98828125 119.4921875 C-6.02208862 119.85352783 -6.02208862 119.85352783 -5.03637695 120.22216797 C-2.68075447 121.12194176 -0.34126221 122.06349511 2 123 C2 82.74 2 42.48 2 1 C1.34 0.67 0.68 0.34 0 0 Z " fill="#151414" transform="translate(318,232)"/>
<path d="M0 0 C2.31 0 4.62 0 7 0 C7.48210937 0.92683594 7.96421875 1.85367187 8.4609375 2.80859375 C9.0986582 4.01838743 9.73669548 5.22801426 10.375 6.4375 C10.69210937 7.04916016 11.00921875 7.66082031 11.3359375 8.29101562 C13.02304299 11.75238344 13.02304299 11.75238344 16 14 C18.64 9.38 21.28 4.76 24 0 C26.31 0 28.62 0 31 0 C31 9.24 31 18.48 31 28 C29.02 28 27.04 28 25 28 C24.67 22.39 24.34 16.78 24 11 C21.69 15.29 19.38 19.58 17 24 C12 23 12 23 10.41796875 20.71484375 C8.70898438 16.85742188 8.70898438 16.85742188 7 13 C6.67 17.95 6.34 22.9 6 28 C4.02 28 2.04 28 0 28 C0 18.76 0 9.52 0 0 Z " fill="#E4952F" transform="translate(362,466)"/>
<path d="M0 0 C2.31 0 4.62 0 7 0 C8.17176518 2.12232979 9.33754785 4.24757791 10.5 6.375 C10.83386719 6.97828125 11.16773438 7.5815625 11.51171875 8.203125 C14 12.7734375 14 12.7734375 14 15 C17.23387892 12.04732794 19.22245249 9.12077252 21.25 5.25 C21.77078125 4.26515625 22.2915625 3.2803125 22.828125 2.265625 C23.21484375 1.51796875 23.6015625 0.7703125 24 0 C26.31 0 28.62 0 31 0 C31 9.24 31 18.48 31 28 C29.02 28 27.04 28 25 28 C24.67 22.72 24.34 17.44 24 12 C22.9275 13.98 21.855 15.96 20.75 18 C18.921875 21.375 18.921875 21.375 17 24 C15.68 24 14.36 24 13 24 C11.02 20.04 9.04 16.08 7 12 C6.67 17.28 6.34 22.56 6 28 C4.02 28 2.04 28 0 28 C0 18.76 0 9.52 0 0 Z " fill="#E59831" transform="translate(168,466)"/>
<path d="M0 0 C6 0 6 0 7.7668457 1.34521484 C8.23179443 1.96090332 8.69674316 2.5765918 9.17578125 3.2109375 C9.95211914 4.21253906 9.95211914 4.21253906 10.74414062 5.234375 C11.52047852 6.29398437 11.52047852 6.29398437 12.3125 7.375 C12.84939453 8.07367188 13.38628906 8.77234375 13.93945312 9.4921875 C17.73493304 14.46986607 17.73493304 14.46986607 19 17 C19.33 11.39 19.66 5.78 20 0 C21.98 0 23.96 0 26 0 C26 9.24 26 18.48 26 28 C24.02 28 22.04 28 20 28 C17.94638512 25.91932431 16.44069506 24.12244023 14.8125 21.75 C14.38775391 21.16347656 13.96300781 20.57695312 13.52539062 19.97265625 C12.33549205 18.32567377 11.16707548 16.66323322 10 15 C9.01 13.68 8.02 12.36 7 11 C6.67 16.61 6.34 22.22 6 28 C4.02 28 2.04 28 0 28 C0 18.76 0 9.52 0 0 Z " fill="#EC9A2B" transform="translate(425,466)"/>
<path d="M0 0 C6 0 6 0 7.87451172 1.56054688 C8.64432373 2.62885742 8.64432373 2.62885742 9.4296875 3.71875 C10.28046875 4.86923828 10.28046875 4.86923828 11.1484375 6.04296875 C11.71820313 6.85378906 12.28796875 7.66460937 12.875 8.5 C13.46796875 9.31082031 14.0609375 10.12164062 14.671875 10.95703125 C16.13197608 12.95878273 17.56832882 14.97781757 19 17 C19.33 11.39 19.66 5.78 20 0 C21.98 0 23.96 0 26 0 C26 9.24 26 18.48 26 28 C20 28 20 28 17.62109375 25.83984375 C16.90050781 24.88207031 16.17992187 23.92429687 15.4375 22.9375 C14.71433594 21.99777344 13.99117187 21.05804688 13.24609375 20.08984375 C10.81138879 16.74053657 8.40675056 13.36945078 6 10 C5.67 15.94 5.34 21.88 5 28 C3.35 28 1.7 28 0 28 C0 18.76 0 9.52 0 0 Z " fill="#F6A52F" transform="translate(240,466)"/>
<path d="M0 0 C2.31 0 4.62 0 7 0 C9.04935997 4.3692815 11.09099623 8.74200889 13.12353516 13.11914062 C13.86121349 14.70216956 14.60736637 16.28124548 15.35546875 17.859375 C15.71253906 18.62765625 16.06960938 19.3959375 16.4375 20.1875 C16.74558594 20.84105469 17.05367188 21.49460937 17.37109375 22.16796875 C18 24 18 24 18 28 C16.02 28 14.04 28 12 28 C11.34 26.35 10.68 24.7 10 23 C3.07 22.505 3.07 22.505 -4 22 C-4.33 23.65 -4.66 25.3 -5 27 C-6 28 -6 28 -9.0625 28.0625 C-10.031875 28.041875 -11.00125 28.02125 -12 28 C-9.08045642 18.2109421 -4.60560288 9.09663852 0 0 Z " fill="#E69F3A" transform="translate(283,466)"/>
<path d="M0 0 C2.31 0 4.62 0 7 0 C18 23.43642612 18 23.43642612 18 28 C16.02 28 14.04 28 12 28 C11.34 26.35 10.68 24.7 10 23 C3.07 22.505 3.07 22.505 -4 22 C-4.33 23.65 -4.66 25.3 -5 27 C-6 28 -6 28 -9.0625 28.0625 C-10.031875 28.041875 -11.00125 28.02125 -12 28 C-8.48870435 18.40461605 -4.41768396 9.20456917 0 0 Z " fill="#EF9B30" transform="translate(216,466)"/>
<path d="M0 0 C2.8100346 1.79363911 4.50940468 3.01880935 6 6 C6.60640743 10.81660756 6.9550189 15.4869538 4 19.5625 C0.82028299 22.14602007 -0.98082254 23.06891349 -5 23.3125 C-8.7000711 22.73436389 -10.45940763 20.6645237 -13 18 C-14.84862688 14.30274625 -14.47587094 10.03538558 -14 6 C-10.44272712 0.18978764 -6.66427238 -0.9575104 0 0 Z " fill="#070808" transform="translate(324,420)"/>
<path d="M0 0 C6.6 0 13.2 0 20 0 C20 1.65 20 3.3 20 5 C15.38 5 10.76 5 6 5 C6 6.98 6 8.96 6 11 C6.78246094 10.98839844 7.56492187 10.97679687 8.37109375 10.96484375 C9.38300781 10.95582031 10.39492188 10.94679688 11.4375 10.9375 C12.44683594 10.92589844 13.45617187 10.91429687 14.49609375 10.90234375 C17 11 17 11 18 12 C18 13.65 18 15.3 18 17 C14.04 17 10.08 17 6 17 C6 18.98 6 20.96 6 23 C10.29 23 14.58 23 19 23 C19 24.65 19 26.3 19 28 C12.73 28 6.46 28 0 28 C0 18.76 0 9.52 0 0 Z " fill="#C57F1D" transform="translate(400,466)"/>
<path d="M0 0 C3.5625 1.5 3.5625 1.5 6 3 C6 6 6 6 5 8 C4.175 7.649375 3.35 7.29875 2.5 6.9375 C-1.97434188 5.73901557 -4.48299883 5.96331121 -9 7 C-11.31589683 8.8092944 -11.85921303 10.02052494 -12.2734375 12.90234375 C-12.43351961 16.20865509 -12.39506448 18.26391894 -10.80078125 21.234375 C-9.11637704 23.22761017 -9.11637704 23.22761017 -6.51953125 23.390625 C-5.62621094 23.34421875 -4.73289062 23.2978125 -3.8125 23.25 C-2.46091797 23.19585937 -2.46091797 23.19585937 -1.08203125 23.140625 C-0.39496094 23.09421875 0.29210937 23.0478125 1 23 C1.33 20.36 1.66 17.72 2 15 C3.65 15 5.3 15 7 15 C7.28327567 18.70776378 7.45334378 22.30224413 7 26 C4.625 28.125 4.625 28.125 2 29 C1.34 29.33 0.68 29.66 0 30 C-5.96102958 30.61665823 -9.38667328 29.88184699 -14.30078125 26.40625 C-17.45496492 23.7958911 -18.76631598 21.76298326 -19.30859375 17.671875 C-19.59155486 11.94405612 -18.97635296 8.39491643 -15 4 C-10.24014575 -0.20638283 -6.12100677 -0.94924704 0 0 Z " fill="#E99F37" transform="translate(323,465)"/>
<path d="M0 0 C6.27 0 12.54 0 19 0 C19 1.65 19 3.3 19 5 C14.71 5 10.42 5 6 5 C6 6.98 6 8.96 6 11 C9.3 11 12.6 11 16 11 C16.33 12.65 16.66 14.3 17 16 C13.37 16.33 9.74 16.66 6 17 C5.67 19.31 5.34 21.62 5 24 C9.62 24 14.24 24 19 24 C19 25.32 19 26.64 19 28 C12.73 28 6.46 28 0 28 C0 18.76 0 9.52 0 0 Z " fill="#EC9A24" transform="translate(337,466)"/>
<path d="M0 0 C1.12019531 -0.00128906 2.24039062 -0.00257813 3.39453125 -0.00390625 C4.57402344 -0.00003906 5.75351562 0.00382812 6.96875 0.0078125 C8.73798828 0.00201172 8.73798828 0.00201172 10.54296875 -0.00390625 C12.22326172 -0.00197266 12.22326172 -0.00197266 13.9375 0 C14.97326172 0.00112793 16.00902344 0.00225586 17.07617188 0.00341797 C19.46875 0.1328125 19.46875 0.1328125 20.46875 1.1328125 C20.5666557 2.63019374 20.59849864 4.13224142 20.59375 5.6328125 C20.59761719 6.85484375 20.59761719 6.85484375 20.6015625 8.1015625 C20.46875 10.1328125 20.46875 10.1328125 19.46875 11.1328125 C17.54207493 11.22029457 15.61223139 11.23978584 13.68359375 11.23046875 C12.51376953 11.22724609 11.34394531 11.22402344 10.13867188 11.22070312 C8.29112305 11.20813477 8.29112305 11.20813477 6.40625 11.1953125 C4.55290039 11.18854492 4.55290039 11.18854492 2.66210938 11.18164062 C-0.40239117 11.16980858 -3.46679721 11.15332423 -6.53125 11.1328125 C-6.55813151 9.48706684 -6.57759123 7.84119837 -6.59375 6.1953125 C-6.60535156 5.27878906 -6.61695313 4.36226563 -6.62890625 3.41796875 C-6.43992308 -1.00423736 -3.81878964 0.00415861 0 0 Z " fill="#151516" transform="translate(288.53125,307.8671875)"/>
<path d="M0 0 C1.07241943 0.00410889 2.14483887 0.00821777 3.24975586 0.01245117 C4.4118457 0.01438477 5.57393555 0.01631836 6.77124023 0.01831055 C7.99004883 0.03055664 9.20885742 0.04280273 10.46459961 0.05541992 C12.29861328 0.05638672 12.29861328 0.05638672 14.16967773 0.05737305 C23.26198905 0.10280936 23.26198905 0.10280936 24.40209961 1.24291992 C24.53491211 3.05541992 24.53491211 3.05541992 24.52709961 5.24291992 C24.5309668 6.32573242 24.5309668 6.32573242 24.53491211 7.43041992 C24.40209961 9.24291992 24.40209961 9.24291992 23.40209961 10.24291992 C21.41452933 10.3427505 19.42342441 10.37372745 17.43334961 10.37573242 C16.22291992 10.37702148 15.01249023 10.37831055 13.76538086 10.37963867 C12.49049805 10.37577148 11.21561523 10.3719043 9.90209961 10.36791992 C8.6272168 10.37178711 7.35233398 10.3756543 6.03881836 10.37963867 C4.22317383 10.37770508 4.22317383 10.37770508 2.37084961 10.37573242 C1.25129883 10.37460449 0.13174805 10.37347656 -1.02172852 10.37231445 C-3.59790039 10.24291992 -3.59790039 10.24291992 -4.59790039 9.24291992 C-4.78540039 5.80541992 -4.78540039 5.80541992 -4.59790039 2.24291992 C-2.59790039 0.24291992 -2.59790039 0.24291992 0 0 Z " fill="#121212" transform="translate(285.597900390625,265.757080078125)"/>
<path d="M0 0 C8.91 0 17.82 0 27 0 C27 3.3 27 6.6 27 10 C18.09 10 9.18 10 0 10 C0 6.7 0 3.4 0 0 Z " fill="#0C0D0E" transform="translate(282,287)"/>
<path d="M0 0 C2.97 0.99 5.94 1.98 9 3 C5 4 5 4 2 3 C2 41.28 2 79.56 2 119 C4.31 119 6.62 119 9 119 C7 121 7 121 0 122 C0 81.74 0 41.48 0 0 Z " fill="#C5985F" transform="translate(323,232)"/>
<path d="M0 0 C7.26 0 14.52 0 22 0 C22 1.65 22 3.3 22 5 C19.36 5 16.72 5 14 5 C14 12.59 14 20.18 14 28 C12.02 28 10.04 28 8 28 C8 20.08 8 12.16 8 4 C5.36 4 2.72 4 0 4 C0 2.68 0 1.36 0 0 Z " fill="#F2A33E" transform="translate(456,466)"/>
<path d="M0 0 C4.94951429 1.59484349 9.78354618 3.42162737 14.625 5.3125 C15.41970703 5.62010254 16.21441406 5.92770508 17.03320312 6.24462891 C22.44383776 8.35083344 27.76711062 10.60133859 33.03125 13.0546875 C41.51520469 15.75615728 47.60811152 15.074918 55.625 11.4375 C57.36526621 10.69516129 59.10616169 9.9542962 60.84765625 9.21484375 C61.70762207 8.84214355 62.56758789 8.46944336 63.45361328 8.08544922 C67.28456862 6.45242645 71.16433121 4.96373748 75.0625 3.5 C75.72266113 3.24532959 76.38282227 2.99065918 77.06298828 2.72827148 C79.87184775 1.66835954 81.96804701 1 85 1 C85 1.66 85 2.32 85 3 C82.18857876 4.10697816 79.37592348 5.21063123 76.5625 6.3125 C75.77939453 6.62123047 74.99628906 6.92996094 74.18945312 7.24804688 C70.2714696 8.77976883 66.35496861 10.2336146 62.3515625 11.52734375 C57.1361852 13.23045209 52.29361777 15.55183001 47.33203125 17.890625 C41.39358868 19.86778525 36.52207023 17.59069994 30.87890625 15.3828125 C30.21592026 15.12498993 29.55293427 14.86716736 28.86985779 14.60153198 C26.76525437 13.78140788 24.66393249 12.95321021 22.5625 12.125 C21.15579548 11.5763188 19.748896 11.02813717 18.34179688 10.48046875 C12.1865034 8.07705895 6.06344457 5.62673142 0 3 C0 2.01 0 1.02 0 0 Z " fill="#CDCFD2" transform="translate(279,343)"/>
<path d="M0 0 C5.51131857 1.71812785 10.83937118 3.71746218 16.16015625 5.953125 C17.46155092 6.49488206 18.76298384 7.03654721 20.06445312 7.578125 C22.07148911 8.41428752 24.07554209 9.25559874 26.07348633 10.11328125 C36.23989692 14.85348991 36.23989692 14.85348991 47 14 C47.9391626 13.67725098 48.8783252 13.35450195 49.84594727 13.02197266 C53.17602538 11.80840289 56.46227086 10.51130338 59.75 9.1875 C68.09569473 5.86774643 76.44562481 2.74409344 85 0 C85 0.99 85 1.98 85 3 C84.25016846 3.27674561 83.50033691 3.55349121 82.7277832 3.83862305 C79.25568854 5.12068059 75.78409299 6.40408466 72.3125 7.6875 C70.54422852 8.34008789 70.54422852 8.34008789 68.74023438 9.00585938 C66.97583008 9.65844727 66.97583008 9.65844727 65.17578125 10.32421875 C63.98807129 10.76169434 62.80036133 11.19916992 61.57666016 11.64990234 C59.18923492 12.55109426 56.81352974 13.48395712 54.45068359 14.44775391 C53.3261377 14.90456543 52.2015918 15.36137695 51.04296875 15.83203125 C50.04676514 16.24815674 49.05056152 16.66428223 48.02416992 17.09301758 C41.72552453 18.98205186 37.01229172 17.95540661 31.03515625 15.515625 C30.39815292 15.25875916 29.7611496 15.00189331 29.10484314 14.73724365 C27.76559542 14.19472567 26.42865745 13.64647377 25.09399414 13.09277344 C23.07582358 12.25552734 21.05156767 11.43484107 19.02539062 10.6171875 C12.55352422 7.98839337 6.18702634 5.2554979 0 2 C0 1.34 0 0.68 0 0 Z " fill="#E2E2E3" transform="translate(279,348)"/>
<path d="M0 0 C4.22178413 0.68155925 7.91591391 2.05141492 11.875 3.65234375 C12.52194824 3.91253799 13.16889648 4.17273224 13.83544922 4.44081116 C15.89196412 5.26898323 17.94599652 6.10312136 20 6.9375 C21.38004714 7.49454015 22.76025402 8.05118471 24.140625 8.60742188 C26.68069582 9.631589 29.21959329 10.65849242 31.7578125 11.68725586 C32.82773437 12.12046143 33.89765625 12.55366699 35 13 C35.90790283 13.39147217 36.81580566 13.78294434 37.7512207 14.1862793 C43.08189432 16.11518334 48.3774974 13.20890611 53.3125 11.125 C58.05245589 9.17389653 62.78162305 7.33998676 67.66796875 5.7890625 C71.92966977 4.34707991 76.09588237 2.64619401 80.27734375 0.98828125 C83 0 83 0 85 0 C84.67 0.99 84.34 1.98 84 3 C81.61425781 4.17919922 81.61425781 4.17919922 78.453125 5.3046875 C77.29683594 5.72363281 76.14054687 6.14257812 74.94921875 6.57421875 C73.72847656 7.00347656 72.50773437 7.43273437 71.25 7.875 C68.87991096 8.72573449 66.51011842 9.57729548 64.140625 10.4296875 C62.95919922 10.84702148 61.77777344 11.26435547 60.56054688 11.69433594 C55.98507611 13.37217587 51.50175536 15.2560333 47.02636719 17.18408203 C41.11684287 18.77730809 36.02526435 16.83603751 30.5078125 14.63671875 C29.30769531 14.16169922 28.10757812 13.68667969 26.87109375 13.19726562 C25.62238828 12.69402916 24.37369041 12.19077384 23.125 11.6875 C21.88437579 11.19530464 20.64349192 10.70376325 19.40234375 10.21289062 C12.86864136 7.61131459 6.40196531 4.91061274 0 2 C0 1.34 0 0.68 0 0 Z " fill="#1D1F21" transform="translate(279,346)"/>
<path d="M0 0 C0.66 0 1.32 0 2 0 C2 0.66 2 1.32 2 2 C2.99 2.33 3.98 2.66 5 3 C6.16796875 4.9609375 6.16796875 4.9609375 7.1875 7.375 C7.53167969 8.16648437 7.87585938 8.95796875 8.23046875 9.7734375 C9 12 9 12 9 15 C7.02 15 5.04 15 3 15 C2.34 13.35 1.68 11.7 1 10 C-5.93 9.505 -5.93 9.505 -13 9 C-13.33 10.65 -13.66 12.3 -14 14 C-15 15 -15 15 -18.0625 15.0625 C-19.031875 15.041875 -20.00125 15.02125 -21 15 C-20.46321216 13.17971944 -19.89465259 11.36878372 -19.3125 9.5625 C-18.84263672 8.04849609 -18.84263672 8.04849609 -18.36328125 6.50390625 C-17 4 -17 4 -14.35546875 3.15234375 C-13.57816406 3.10207031 -12.80085937 3.05179687 -12 3 C-12 3.66 -12 4.32 -12 5 C-8.37 5 -4.74 5 -1 5 C-0.67 3.35 -0.34 1.7 0 0 Z " fill="#F9A326" transform="translate(225,479)"/>
<path d="M0 0 C0 0.66 0 1.32 0 2 C-1.32 2.33 -2.64 2.66 -4 3 C-4 3.66 -4 4.32 -4 5 C-4.66 5 -5.32 5 -6 5 C-6.33 5.99 -6.66 6.98 -7 8 C-8.77148438 8.97973633 -8.77148438 8.97973633 -11.09375 9.83203125 C-11.95178223 10.15300781 -12.80981445 10.47398437 -13.69384766 10.8046875 C-14.61987793 11.13726562 -15.5459082 11.46984375 -16.5 11.8125 C-17.44020996 12.15925781 -18.38041992 12.50601563 -19.34912109 12.86328125 C-22.22856058 13.92077666 -25.11375361 14.96124936 -28 16 C-29.69024248 16.61811149 -31.38035517 17.23657806 -33.0703125 17.85546875 C-34.58806235 18.40497154 -36.10626626 18.9532224 -37.625 19.5 C-38.67977539 19.88248901 -38.67977539 19.88248901 -39.75585938 20.27270508 C-42.64513082 21.29318487 -44.9103896 22 -48 22 C-48 21.34 -48 20.68 -48 20 C-40.17772527 16.48457585 -32.3533729 12.97385966 -24.52481079 9.47245789 C-20.8869816 7.84532823 -17.25140202 6.2133075 -13.6171875 4.578125 C-12.20334202 3.94742993 -10.78930345 3.31716741 -9.375 2.6875 C-8.18648438 2.15511719 -6.99796875 1.62273437 -5.7734375 1.07421875 C-3 0 -3 0 0 0 Z " fill="#15120F" transform="translate(296,200)"/>
<path d="M0 0 C0.99 0 1.98 0 3 0 C3.33 28.71 3.66 57.42 4 87 C2.515 87.495 2.515 87.495 1 88 C0.67 58.96 0.34 29.92 0 0 Z " fill="#462F1C" transform="translate(371,248)"/>
<path d="M0 0 C1.65 0.33 3.3 0.66 5 1 C5 11.56 5 22.12 5 33 C3.35 32.67 1.7 32.34 0 32 C0 23.75 0 15.5 0 7 C-0.66 6.67 -1.32 6.34 -2 6 C-1.34 4.02 -0.68 2.04 0 0 Z " fill="#DEA34D" transform="translate(391,219)"/>
<path d="M0 0 C6.27 0 12.54 0 19 0 C19 1.32 19 2.64 19 4 C14.71 4 10.42 4 6 4 C6 3.34 6 2.68 6 2 C5.01 2.33 4.02 2.66 3 3 C2.67 10.59 2.34 18.18 2 26 C2.66 26 3.32 26 4 26 C4 23.03 4 20.06 4 17 C4.33 17 4.66 17 5 17 C5 19.64 5 22.28 5 25 C7.56893838 26.28446919 9.76576337 26.32977144 12.625 26.5625 C13.62789063 26.64628906 14.63078125 26.73007812 15.6640625 26.81640625 C16.43492187 26.87699219 17.20578125 26.93757813 18 27 C18 26.34 18 25.68 18 25 C16.68 24.67 15.36 24.34 14 24 C15.65 24 17.3 24 19 24 C19 25.32 19 26.64 19 28 C12.73 28 6.46 28 0 28 C0 18.76 0 9.52 0 0 Z " fill="#EEA33A" transform="translate(400,466)"/>
<path d="M0 0 C2.9375 2.25 2.9375 2.25 5 5 C5 6.32 5 7.64 5 9 C-0.94 9 -6.88 9 -13 9 C-11 3 -11 3 -9.3125 1.125 C-5.95063538 -0.51050171 -3.69096778 -0.51803057 0 0 Z " fill="#101212" transform="translate(372,419)"/>
<path d="M0 0 C6.24988249 0.50674723 11.42183665 3.36113088 17 6 C20.96367866 7.7558726 24.96650702 9.41104822 29 11 C29 11.99 29 12.98 29 14 C26.69 14.33 24.38 14.66 22 15 C21.67 14.01 21.34 13.02 21 12 C19.20966218 11.55241555 17.41547235 11.11729803 15.609375 10.73828125 C10.15043355 9.19376039 5.09204133 6.46839808 0 4 C0 2.68 0 1.36 0 0 Z " fill="#EDEEED" transform="translate(374,208)"/>
<path d="M0 0 C4.15672685 4.78023587 7 10.68147308 7 17 C5.02 17 3.04 17 1 17 C0.34 15.35 -0.32 13.7 -1 12 C-7.93 11.505 -7.93 11.505 -15 11 C-15.33 12.65 -15.66 14.3 -16 16 C-17.65 16 -19.3 16 -21 16 C-19.125 10.125 -19.125 10.125 -18 9 C-15.21562761 8.84613458 -12.47316769 8.7683117 -9.6875 8.75 C-8.91470703 8.729375 -8.14191406 8.70875 -7.34570312 8.6875 C-1.5907439 8.64791301 -1.5907439 8.64791301 1.54296875 10.515625 C2.02378906 11.00546875 2.50460937 11.4953125 3 12 C3 11.01 3 10.02 3 9 C2.34 9 1.68 9 1 9 C0.67 6.03 0.34 3.06 0 0 Z " fill="#E59C3C" transform="translate(294,477)"/>
<path d="M0 0 C6.27 0 12.54 0 19 0 C19 1.32 19 2.64 19 4 C15.04 4 11.08 4 7 4 C7.33 3.34 7.66 2.68 8 2 C5.69 1.67 3.38 1.34 1 1 C1 9.58 1 18.16 1 27 C6.61 27 12.22 27 18 27 C18 26.34 18 25.68 18 25 C14.04 25 10.08 25 6 25 C6 24.67 6 24.34 6 24 C10.29 24 14.58 24 19 24 C19 25.32 19 26.64 19 28 C12.73 28 6.46 28 0 28 C0 18.76 0 9.52 0 0 Z " fill="#E9A84F" transform="translate(337,466)"/>
<path d="M0 0 C2.31 0 4.62 0 7 0 C8.32 3.3 9.64 6.6 11 10 C9.68 9.67 8.36 9.34 7 9 C7.66 11.97 8.32 14.94 9 18 C5.7 18 2.4 18 -1 18 C-0.45660208 13.43545749 0.79463821 10.0271824 3 6 C4.32 6.33 5.64 6.66 7 7 C6.67 5.35 6.34 3.7 6 2 C4.35 1.67 2.7 1.34 1 1 C1 1.66 1 2.32 1 3 C0.34 3 -0.32 3 -1 3 C-0.67 2.01 -0.34 1.02 0 0 Z " fill="#DA943B" transform="translate(283,466)"/>
<path d="M0 0 C1.98 0 3.96 0 6 0 C6 9.24 6 18.48 6 28 C4.02 28 2.04 28 0 28 C-0.66 26.68 -1.32 25.36 -2 24 C-1.34 24 -0.68 24 0 24 C0 24.66 0 25.32 0 26 C1.32 26 2.64 26 4 26 C4 17.75 4 9.5 4 1 C3.34 1 2.68 1 2 1 C2 6.61 2 12.22 2 18 C0.68 18.33 -0.64 18.66 -2 19 C-1.34 18.67 -0.68 18.34 0 18 C0 12.06 0 6.12 0 0 Z " fill="#DD9A45" transform="translate(445,466)"/>
<path d="M0 0 C6 2 6 2 7.5 4.4375 C8 7 8 7 6 10 C5.34 9.67 4.68 9.34 4 9 C3.67 14.61 3.34 20.22 3 26 C2.01 26 1.02 26 0 26 C0 17.42 0 8.84 0 0 Z " fill="#F99D27" transform="translate(363,467)"/>
<path d="M0 0 C11.88 0 23.76 0 36 0 C36 0.99 36 1.98 36 3 C24.12 3 12.24 3 0 3 C0 2.01 0 1.02 0 0 Z " fill="#E8E9E9" transform="translate(234,346)"/>
<path d="M0 0 C11.55 0 23.1 0 35 0 C35 0.99 35 1.98 35 3 C23.12 3 11.24 3 -1 3 C-0.67 2.01 -0.34 1.02 0 0 Z " fill="#EBECED" transform="translate(374,346)"/>
<path d="M0 0 C0.66 0 1.32 0 2 0 C2.33 7.26 2.66 14.52 3 22 C3.33 15.07 3.66 8.14 4 1 C4.66 1 5.32 1 6 1 C6 8.59 6 16.18 6 24 C4.02 24 2.04 24 0 24 C0 16.08 0 8.16 0 0 Z " fill="#E39B34" transform="translate(464,470)"/>
<path d="M0 0 C1.65 0 3.3 0 5 0 C5.28327567 3.70776378 5.45334378 7.30224413 5 11 C2.625 13.125 2.625 13.125 0 14 C-0.99 14.495 -0.99 14.495 -2 15 C-3.875 15.16796875 -3.875 15.16796875 -6 15.1875 C-7.051875 15.20876953 -7.051875 15.20876953 -8.125 15.23046875 C-10 15 -10 15 -12 13 C-8.7 13 -5.4 13 -2 13 C-2 12.34 -2 11.68 -2 11 C-4.97 10.505 -4.97 10.505 -8 10 C-8 9.67 -8 9.34 -8 9 C-4.535 8.505 -4.535 8.505 -1 8 C-0.67 5.36 -0.34 2.72 0 0 Z " fill="#DF9734" transform="translate(325,480)"/>
<path d="M0 0 C1.98 0 3.96 0 6 0 C6 9.24 6 18.48 6 28 C0 28 0 28 -1.875 26.625 C-3 25 -3 25 -3 23 C-2.01 23.33 -1.02 23.66 0 24 C0 24.66 0 25.32 0 26 C1.32 26 2.64 26 4 26 C4 18.08 4 10.16 4 2 C3.01 2 2.02 2 1 2 C1 6.95 1 11.9 1 17 C0.67 17 0.34 17 0 17 C0 11.39 0 5.78 0 0 Z " fill="#D9973D" transform="translate(260,466)"/>
<path d="M0 0 C0.99 0 1.98 0 3 0 C3 7.92 3 15.84 3 24 C-1 24 -1 24 -2.75 22.75 C-4 21 -4 21 -4 17 C-3.01 17 -2.02 17 -1 17 C-0.67 11.39 -0.34 5.78 0 0 Z " fill="#F99C22" transform="translate(261,468)"/>
<path d="M0 0 C0.495 1.485 0.495 1.485 1 3 C-0.14831299 3.42297363 -0.14831299 3.42297363 -1.31982422 3.85449219 C-4.2090645 4.91947706 -7.0978414 5.98570754 -9.98632812 7.05273438 C-11.83168587 7.73400916 -13.67755572 8.41389633 -15.5234375 9.09375 C-16.709375 9.53203125 -17.8953125 9.9703125 -19.1171875 10.421875 C-20.28604492 10.85177734 -21.45490234 11.28167969 -22.65917969 11.72460938 C-26.47582623 13.18165129 -30.20755542 14.79728143 -33.91845703 16.50488281 C-36 17 -36 17 -38.27294922 16.09667969 C-38.84287598 15.73477539 -39.41280273 15.37287109 -40 15 C-36.07175642 13.50565589 -32.14310833 12.01238126 -28.21411133 10.52001953 C-26.88262439 10.01411545 -25.55124093 9.50793891 -24.2199707 9.00146484 C-16.1688992 5.93872201 -8.10668727 2.91329119 0 0 Z " fill="#D9DBDD" transform="translate(363,348)"/>
<path d="M0 0 C10.23 0 20.46 0 31 0 C31 0.99 31 1.98 31 3 C20.77 3 10.54 3 0 3 C0 2.01 0 1.02 0 0 Z " fill="#DBDBDC" transform="translate(376,340)"/>
<path d="M0 0 C9.9 0 19.8 0 30 0 C30.33 0.99 30.66 1.98 31 3 C20.77 3 10.54 3 0 3 C0 2.01 0 1.02 0 0 Z " fill="#DDDCDD" transform="translate(237,340)"/>
<path d="M0 0 C1.32 0.33 2.64 0.66 4 1 C4.33 4.3 4.66 7.6 5 11 C5.66 11 6.32 11 7 11 C7 11.99 7 12.98 7 14 C6.51015625 13.68289063 6.0203125 13.36578125 5.515625 13.0390625 C1.998323 11.58626385 -1.49665393 11.53415248 -5.25 11.375 C-5.99507813 11.33632813 -6.74015625 11.29765625 -7.5078125 11.2578125 C-9.3381524 11.16394892 -11.16904143 11.08090282 -13 11 C-12.3791378 7.31702134 -11.93325018 5.42311971 -9 3 C-8.67 4.65 -8.34 6.3 -8 8 C-4.7 8.33 -1.4 8.66 2 9 C1.34 6.03 0.68 3.06 0 0 Z " fill="#FA9F1D" transform="translate(290,475)"/>
<path d="M0 0 C8.1384552 2.62239112 16.05034763 5.86165797 24 9 C24.64533691 9.25249512 25.29067383 9.50499023 25.95556641 9.76513672 C27.61957459 10.41825195 29.27874268 11.08366159 30.9375 11.75 C31.85402344 12.11609375 32.77054687 12.4821875 33.71484375 12.859375 C35.974069 13.98705666 37.35277812 15.10814121 39 17 C34.1484511 16.45537599 30.08754086 15.44247249 25.5859375 13.56640625 C24.41289062 13.08236328 23.23984375 12.59832031 22.03125 12.09960938 C20.8246875 11.59236328 19.618125 11.08511719 18.375 10.5625 C17.16070312 10.05912109 15.94640625 9.55574219 14.6953125 9.03710938 C12.44035366 8.10209615 10.18677116 7.16375139 7.93505859 6.22094727 C5.2986648 5.12424078 2.65401625 4.05321508 0 3 C0 2.01 0 1.02 0 0 Z " fill="#E5E5E8" transform="translate(279,343)"/>
<path d="M0 0 C1.65 0 3.3 0 5 0 C7.60018816 3.90028225 7.15085514 7.47434569 7 12 C4.36 12 1.72 12 -1 12 C-1.02712066 10.56260487 -1.04645067 9.12506137 -1.0625 7.6875 C-1.07410156 6.88699219 -1.08570313 6.08648437 -1.09765625 5.26171875 C-1 3 -1 3 0 0 Z " fill="#F7B359" transform="translate(391,256)"/>
<path d="M0 0 C3.68881485 3.53156519 6.77382244 7.18534092 9.8125 11.3125 C10.21919922 11.86228516 10.62589844 12.41207031 11.04492188 12.97851562 C12.03368611 14.31625547 13.01738585 15.65773623 14 17 C13.01 17.33 12.02 17.66 11 18 C10.67 19.32 10.34 20.64 10 22 C7.03 18.04 4.06 14.08 1 10 C1.99 9.34 2.98 8.68 4 8 C3.01 6.576875 3.01 6.576875 2 5.125 C0 2 0 2 0 0 Z " fill="#E99C3B" transform="translate(246,467)"/>
<path d="M0 0 C1.98 0 3.96 0 6 0 C4.68 0.33 3.36 0.66 2 1 C2 9.25 2 17.5 2 26 C2.66 26 3.32 26 4 26 C4 20.72 4 15.44 4 10 C4.33 10 4.66 10 5 10 C5 15.94 5 21.88 5 28 C3.35 28 1.7 28 0 28 C0 18.76 0 9.52 0 0 Z " fill="#E4A047" transform="translate(425,466)"/>
<path d="M0 0 C0.66 0 1.32 0 2 0 C2 8.25 2 16.5 2 25 C0.68 25 -0.64 25 -2 25 C-2 24.34 -2 23.68 -2 23 C-2.66 23 -3.32 23 -4 23 C-4.66 21.02 -5.32 19.04 -6 17 C-4.35 17 -2.7 17 -1 17 C-0.67 11.39 -0.34 5.78 0 0 Z " fill="#FCA124" transform="translate(447,467)"/>
<path d="M0 0 C1.32 0 2.64 0 4 0 C4.33 1.98 4.66 3.96 5 6 C5.66 6 6.32 6 7 6 C7 6.66 7 7.32 7 8 C6.03320312 8.24363281 6.03320312 8.24363281 5.046875 8.4921875 C2.5663746 9.95214403 2.5663746 9.95214403 2.390625 13.6953125 C2.32414708 15.17112237 2.27806121 16.64796017 2.25 18.125 C2.20552734 19.25615234 2.20552734 19.25615234 2.16015625 20.41015625 C2.08942068 22.27285953 2.04245017 24.13643755 2 26 C0 24 0 24 -0.22705078 21.56982422 C-0.21657715 20.5748291 -0.20610352 19.57983398 -0.1953125 18.5546875 C-0.18886719 17.47832031 -0.18242187 16.40195312 -0.17578125 15.29296875 C-0.15902344 14.16503906 -0.14226562 13.03710938 -0.125 11.875 C-0.11597656 10.73933594 -0.10695312 9.60367187 -0.09765625 8.43359375 C-0.07403098 5.62218701 -0.04109013 2.81119702 0 0 Z " fill="#FA9E21" transform="translate(170,467)"/>
<path d="M0 0 C-4.05569512 1.55117764 -8.11252124 3.09934867 -12.17041016 4.64477539 C-13.54995488 5.17064786 -14.92919026 5.69733257 -16.30810547 6.22485352 C-18.29313173 6.9840867 -20.27926156 7.74036702 -22.265625 8.49609375 C-23.45961914 8.95169678 -24.65361328 9.4072998 -25.88378906 9.87670898 C-28.26151077 10.73379905 -30.53619091 11.46404153 -33 12 C-33.33 11.34 -33.66 10.68 -34 10 C-32.68 10 -31.36 10 -30 10 C-30 9.34 -30 8.68 -30 8 C-7.71719709 -2.1854824 -7.71719709 -2.1854824 0 0 Z " fill="#E2AC6B" transform="translate(366,339)"/>
<path d="M0 0 C1.51400391 0.01740234 1.51400391 0.01740234 3.05859375 0.03515625 C4.07050781 0.04417969 5.08242188 0.05320312 6.125 0.0625 C7.29869141 0.07990234 7.29869141 0.07990234 8.49609375 0.09765625 C8.16609375 0.75765625 7.83609375 1.41765625 7.49609375 2.09765625 C4.52609375 2.09765625 1.55609375 2.09765625 -1.50390625 2.09765625 C-1.17390625 3.41765625 -0.84390625 4.73765625 -0.50390625 6.09765625 C3.45609375 6.42765625 7.41609375 6.75765625 11.49609375 7.09765625 C11.49609375 9.07765625 11.49609375 11.05765625 11.49609375 13.09765625 C4.89609375 13.09765625 -1.70390625 13.09765625 -8.50390625 13.09765625 C-8.50390625 12.76765625 -8.50390625 12.43765625 -8.50390625 12.09765625 C-2.23390625 12.09765625 4.03609375 12.09765625 10.49609375 12.09765625 C10.49609375 10.77765625 10.49609375 9.45765625 10.49609375 8.09765625 C5.87609375 8.09765625 1.25609375 8.09765625 -3.50390625 8.09765625 C-3.50390625 0.13665781 -3.50390625 0.13665781 0 0 Z " fill="#60370F" transform="translate(345.50390625,481.90234375)"/>
<path d="M0 0 C2.31 0 4.62 0 7 0 C7.69710731 1.28650706 8.38242876 2.57940665 9.0625 3.875 C9.44535156 4.59429687 9.82820313 5.31359375 10.22265625 6.0546875 C10.47917969 6.69664062 10.73570312 7.33859375 11 8 C10.67 8.66 10.34 9.32 10 10 C7 5.25 7 5.25 7 3 C5.02 2.34 3.04 1.68 1 1 C1 9.58 1 18.16 1 27 C1.99 27 2.98 27 4 27 C4 22.05 4 17.1 4 12 C4.33 12 4.66 12 5 12 C5 17.28 5 22.56 5 28 C3.35 28 1.7 28 0 28 C0 18.76 0 9.52 0 0 Z " fill="#DE9C46" transform="translate(362,466)"/>
<path d="M0 0 C4.00972202 3.67557852 6.45335415 7.18966896 9 12 C8.01 12 7.02 12 6 12 C6.66 13.98 7.32 15.96 8 18 C3.78185183 14.0299782 0.38772897 9.69159716 -3 5 C-2.34 4.67 -1.68 4.34 -1 4 C-0.34 4.33 0.32 4.66 1 5 C0.67 3.35 0.34 1.7 0 0 Z " fill="#E99F3A" transform="translate(435,472)"/>
<path d="M0 0 C-1.32 0.33 -2.64 0.66 -4 1 C-3.67 1.33 -3.34 1.66 -3 2 C-3 2.66 -3 3.32 -3 4 C-9.75052102 2.22089072 -16.40620337 0.29561809 -23 -2 C-22.37738281 -2.15210938 -21.75476563 -2.30421875 -21.11328125 -2.4609375 C-19.03401102 -2.96048501 -19.03401102 -2.96048501 -17.1875 -3.625 C-11.10698557 -4.6673739 -5.5269413 -2.2301693 0 0 Z " fill="#291307" transform="translate(363,241)"/>
<path d="M0 0 C4.7972345 0.65594839 9.23726974 1.94731169 13.8046875 3.50390625 C14.5286673 3.7466478 15.25264709 3.98938934 15.99856567 4.23948669 C18.29216414 5.00958071 20.58358604 5.78593316 22.875 6.5625 C24.43736003 7.0883067 25.99985871 7.61370162 27.5625 8.13867188 C31.37662054 9.42102287 35.18880283 10.70898788 39 12 C35.26513672 14.06738281 35.26513672 14.06738281 32.87890625 13.4609375 C32.11449219 13.10257813 31.35007812 12.74421875 30.5625 12.375 C26.60940926 10.64261612 22.70054677 9.23156154 18.5625 8 C14.26087319 6.70389892 9.99051978 5.36000693 5.75 3.875 C4.85796875 3.56304687 3.9659375 3.25109375 3.046875 2.9296875 C1 2 1 2 0 0 Z " fill="#E3AE6C" transform="translate(332,236)"/>
<path d="M0 0 C2.33944736 0.28730055 4.6739143 0.61936779 7 1 C7 5.29 7 9.58 7 14 C6.01 14 5.02 14 4 14 C4.33 13.67 4.66 13.34 5 13 C5.23363881 11.15108054 5.41303635 9.29511969 5.5625 7.4375 C5.64628906 6.42558594 5.73007812 5.41367187 5.81640625 4.37109375 C5.90728516 3.19740234 5.90728516 3.19740234 6 2 C4.35 2 2.7 2 1 2 C1.020625 3.299375 1.04125 4.59875 1.0625 5.9375 C1.08399454 7.29165633 1.07148199 8.64756083 1 10 C-0.66684015 11.66684015 -2.65643069 11.21072764 -4.9375 11.25 C-5.83339844 11.27578125 -6.72929687 11.3015625 -7.65234375 11.328125 C-8.42707031 11.21984375 -9.20179688 11.1115625 -10 11 C-10.66 10.01 -11.32 9.02 -12 8 C-8.37 8.66 -4.74 9.32 -1 10 C-1.020625 8.535625 -1.04125 7.07125 -1.0625 5.5625 C-1.08392007 4.04167482 -1.07179964 2.51928038 -1 1 C-0.67 0.67 -0.34 0.34 0 0 Z " fill="#422208" transform="translate(324,478)"/>
<path d="M0 0 C1.32 0 2.64 0 4 0 C5.19733988 2.11997834 6.38298713 4.24513676 7.5625 6.375 C7.90474609 6.97828125 8.24699219 7.5815625 8.59960938 8.203125 C9.46127095 9.76978241 10.23718183 11.38290862 11 13 C10.67 13.66 10.34 14.32 10 15 C8.68 13.68 7.36 12.36 6 11 C6.33 12.65 6.66 14.3 7 16 C5 15 5 15 4 12 C3.67 17.28 3.34 22.56 3 28 C2.67 28 2.34 28 2 28 C2 22.06 2 16.12 2 10 C3.32 9.67 4.64 9.34 6 9 C6 8.34 6 7.68 6 7 C5.34 7 4.68 7 4 7 C3.67 5.02 3.34 3.04 3 1 C2.01 0.67 1.02 0.34 0 0 Z " fill="#CE8632" transform="translate(171,466)"/>
<path d="M0 0 C2.31 0 4.62 0 7 0 C7 0.99 7 1.98 7 3 C6.34 3 5.68 3 5 3 C5 10.26 5 17.52 5 25 C4.34 24.67 3.68 24.34 3 24 C3 16.74 3 9.48 3 2 C2.01 1.67 1.02 1.34 0 1 C0 0.67 0 0.34 0 0 Z " fill="#FB9F1B" transform="translate(463,468)"/>
<path d="M0 0 C0 0.99 0 1.98 0 3 C-2.18429771 3.97575204 -4.36991413 4.94816633 -6.55859375 5.9140625 C-8.59013236 6.81769087 -10.60926756 7.7491418 -12.625 8.6875 C-16.12051849 10.0468683 -19.27955379 10.62036263 -23 11 C-23.33 10.34 -23.66 9.68 -24 9 C-16.08 6.03 -8.16 3.06 0 0 Z " fill="#E0AE6B" transform="translate(302,202)"/>
<path d="M0 0 C2.97903734 2.97903734 4 5.80285329 4 10 C2.02 10 0.04 10 -2 10 C-2.66 8.35 -3.32 6.7 -4 5 C-10.93 4.505 -10.93 4.505 -18 4 C-14.89013793 1.92675862 -14.10891613 1.72607814 -10.5625 1.75 C-9.80066406 1.74484375 -9.03882813 1.7396875 -8.25390625 1.734375 C-4.19234866 2.21303343 -1.70244797 4.02730723 1 7 C0.67 4.69 0.34 2.38 0 0 Z " fill="#E5A142" transform="translate(230,484)"/>
<path d="M0 0 C0.99580078 0.59941406 0.99580078 0.59941406 2.01171875 1.2109375 C-0.70438043 3.92703668 -3.8542317 4.68013972 -7.42578125 5.8359375 C-8.10705078 6.06539062 -8.78832031 6.29484375 -9.49023438 6.53125 C-12.43810943 7.50136363 -14.86494967 8.2109375 -17.98828125 8.2109375 C-17.98828125 7.5509375 -17.98828125 6.8909375 -17.98828125 6.2109375 C-15.60177447 4.98016042 -13.20711032 3.77679058 -10.80078125 2.5859375 C-10.12724609 2.2353125 -9.45371094 1.8846875 -8.75976562 1.5234375 C-5.44411737 -0.09395189 -3.63846622 -0.96074533 0 0 Z " fill="#211911" transform="translate(265.98828125,213.7890625)"/>
<path d="M0 0 C2 1 2 1 2.8515625 3.28515625 C3.10679687 4.20167969 3.36203125 5.11820312 3.625 6.0625 C3.88539063 6.98160156 4.14578125 7.90070313 4.4140625 8.84765625 C4.60742188 9.55792969 4.80078125 10.26820313 5 11 C2.03 11 -0.94 11 -4 11 C-3.52269162 9.5410574 -3.04308958 8.08286504 -2.5625 6.625 C-2.29566406 5.81289063 -2.02882812 5.00078125 -1.75390625 4.1640625 C-1 2 -1 2 0 0 Z " fill="#3B1101" transform="translate(219,472)"/>
<path d="M0 0 C0.66 0 1.32 0 2 0 C2 9.24 2 18.48 2 28 C1.34 28 0.68 28 0 28 C-0.19581346 23.52115561 -0.3802636 19.04191574 -0.5625 14.5625 C-0.61857422 13.28310547 -0.67464844 12.00371094 -0.73242188 10.68554688 C-0.78076172 9.47060547 -0.82910156 8.25566406 -0.87890625 7.00390625 C-0.9260376 5.87799072 -0.97316895 4.7520752 -1.02172852 3.59204102 C-1 1 -1 1 0 0 Z " fill="#321902" transform="translate(238,466)"/>
<path d="M0 0 C0.66 0.66 1.32 1.32 2 2 C0.7625 1.938125 -0.475 1.87625 -1.75 1.8125 C-4.46067878 1.67696606 -5.77760928 1.87927361 -8.1875 3.1875 C-10.46972831 5.46972831 -10.75742631 7.02681879 -11.25 10.1875 C-11.39953125 11.08855469 -11.5490625 11.98960937 -11.703125 12.91796875 C-11.80109375 13.60503906 -11.8990625 14.29210937 -12 15 C-14 13 -14 13 -14.375 9.1875 C-14.29807471 5.93296846 -13.97936065 4.96655001 -12.1875 2.0625 C-8.21085929 -1.6869041 -5.10682523 -1.02136505 0 0 Z " fill="#260E02" transform="translate(324,471)"/>
<path d="M0 0 C0 1.32 0 2.64 0 4 C-4.17949673 6.78633115 -6.93375326 8 -12 8 C-12 7.34 -12 6.68 -12 6 C-12.66 5.34 -13.32 4.68 -14 4 C-12.0429132 3.32968281 -10.08428887 2.66385317 -8.125 2 C-7.03445313 1.62875 -5.94390625 1.2575 -4.8203125 0.875 C-2 0 -2 0 0 0 Z " fill="#1C130B" transform="translate(298,235)"/>
<path d="M0 0 C0.33 0 0.66 0 1 0 C1 5.94 1 11.88 1 18 C0.34 18 -0.32 18 -1 18 C-1.33 15.36 -1.66 12.72 -2 10 C-2.99 11.485 -2.99 11.485 -4 13 C-4.66 13 -5.32 13 -6 13 C-4.58707905 8.1725201 -2.57025846 4.2837641 0 0 Z " fill="#170500" transform="translate(386,476)"/>
<path d="M0 0 C4.62 0 9.24 0 14 0 C14 1.32 14 2.64 14 4 C9.38 4 4.76 4 0 4 C0 2.68 0 1.36 0 0 Z " fill="#F5A327" transform="translate(403,478)"/>
<path d="M0 0 C0 0.99 0 1.98 0 3 C-0.6290625 2.79503906 -1.258125 2.59007812 -1.90625 2.37890625 C-11.57933398 -0.66578434 -17.019719 -1.91256054 -26.58203125 2.1875 C-29 3 -29 3 -32 2 C-19.79229192 -3.2830885 -12.52256536 -4.39204797 0 0 Z " fill="#E0AD6E" transform="translate(336,229)"/>
<path d="M0 0 C3.87961647 3.87961647 6.2157554 6.56583267 9 11 C8.01 10.67 7.02 10.34 6 10 C6 9.34 6 8.68 6 8 C4.68 7.67 3.36 7.34 2 7 C2.01160156 7.78246094 2.02320313 8.56492187 2.03515625 9.37109375 C2.04417969 10.38300781 2.05320312 11.39492188 2.0625 12.4375 C2.07410156 13.44683594 2.08570313 14.45617187 2.09765625 15.49609375 C2 18 2 18 1 19 C-1.33297433 19.04092937 -3.66705225 19.04241723 -6 19 C-6 18.67 -6 18.34 -6 18 C-4.02 18 -2.04 18 0 18 C0 12.06 0 6.12 0 0 Z " fill="#2A0D01" transform="translate(431,476)"/>
<path d="M0 0 C2 1 2 1 3.125 3.8125 C4 7 4 7 4 11 C1.36 11 -1.28 11 -4 11 C-3.52269162 9.5410574 -3.04308958 8.08286504 -2.5625 6.625 C-2.29566406 5.81289063 -2.02882813 5.00078125 -1.75390625 4.1640625 C-1 2 -1 2 0 0 Z " fill="#270B01" transform="translate(286,472)"/>
<path d="M0 0 C-0.4375 2.25 -0.4375 2.25 -2 5 C-4.84740291 6.76319949 -7.76823871 8.11284984 -11 9 C-11.99 8.67 -12.98 8.34 -14 8 C-12.9960141 5.41677141 -12.33568593 4.20637996 -9.94140625 2.734375 C-9.15636719 2.40953125 -8.37132812 2.0846875 -7.5625 1.75 C-6.78003906 1.41484375 -5.99757813 1.0796875 -5.19140625 0.734375 C-3 0 -3 0 0 0 Z " fill="#EDEDEE" transform="translate(277,204)"/>
<path d="M0 0 C4.29 0 8.58 0 13 0 C13 0.33 13 0.66 13 1 C12.28972656 1.04898437 11.57945312 1.09796875 10.84765625 1.1484375 C9.46900391 1.26058594 9.46900391 1.26058594 8.0625 1.375 C7.14597656 1.44460938 6.22945313 1.51421875 5.28515625 1.5859375 C4.53105469 1.72257812 3.77695312 1.85921875 3 2 C2.67 2.66 2.34 3.32 2 4 C2.62648438 3.96519531 3.25296875 3.93039062 3.8984375 3.89453125 C4.71570313 3.86746094 5.53296875 3.84039062 6.375 3.8125 C7.18710937 3.77769531 7.99921875 3.74289062 8.8359375 3.70703125 C9.55007813 3.80371094 10.26421875 3.90039062 11 4 C13 7 13 7 13 11 C12.34 11 11.68 11 11 11 C10.67 9.68 10.34 8.36 10 7 C6.7 6.67 3.4 6.34 0 6 C0 4.02 0 2.04 0 0 Z " fill="#1A0500" transform="translate(343,471)"/>
<path d="M0 0 C4.03384128 2.07143201 5.92856799 3.96615872 8 8 C7.01 8.495 7.01 8.495 6 9 C5.01 8.01 4.02 7.02 3 6 C2.67 6.66 2.34 7.32 2 8 C2 7.34 2 6.68 2 6 C1.01 5.67 0.02 5.34 -1 5 C-1.33 9.95 -1.66 14.9 -2 20 C-2.33 20 -2.66 20 -3 20 C-3 14.06 -3 8.12 -3 2 C-2.34 2 -1.68 2 -1 2 C-0.67 1.34 -0.34 0.68 0 0 Z " fill="#C57F21" transform="translate(370,474)"/>
<path d="M0 0 C1.93719378 -0.05406122 3.87481921 -0.09282025 5.8125 -0.125 C6.89144531 -0.14820313 7.97039062 -0.17140625 9.08203125 -0.1953125 C12 0 12 0 15 2 C15 3.32 15 4.64 15 6 C14.21625 5.71125 13.4325 5.4225 12.625 5.125 C8.1377242 3.73239716 3.614721 2.85728019 -1 2 C-0.67 1.34 -0.34 0.68 0 0 Z " fill="#F9A733" transform="translate(313,467)"/>
<path d="M0 0 C20.65 6.65 20.65 6.65 23 9 C23.14115161 11.67058851 23.04247107 14.32432238 23 17 C22.34 17 21.68 17 21 17 C20.67 14.69 20.34 12.38 20 10 C10.1 6.04 10.1 6.04 0 2 C0 1.34 0 0.68 0 0 Z " fill="#271207" transform="translate(251,225)"/>
<path d="M0 0 C1.65 1.65 3.3 3.3 5 5 C4.01 5.33 3.02 5.66 2 6 C2 10.62 2 15.24 2 20 C-0.31 20 -2.62 20 -5 20 C-5 19.67 -5 19.34 -5 19 C-3.35 19 -1.7 19 0 19 C0 12.73 0 6.46 0 0 Z " fill="#421F01" transform="translate(245,475)"/>
<path d="M0 0 C2.64 0 5.28 0 8 0 C8.94965288 2.13671899 9.89802504 4.2738723 10.83984375 6.4140625 C11.59954317 8.10739926 12.38268252 9.79045897 13.19140625 11.4609375 C13.56136719 12.23695313 13.93132812 13.01296875 14.3125 13.8125 C14.83263672 14.87404297 14.83263672 14.87404297 15.36328125 15.95703125 C16.12156759 18.39006044 15.69310934 19.59590433 15 22 C14.79431396 21.42967041 14.58862793 20.85934082 14.37670898 20.27172852 C13.42655444 17.68995289 12.43292572 15.12714196 11.4375 12.5625 C11.11458984 11.66466797 10.79167969 10.76683594 10.45898438 9.84179688 C9.47153561 7.34966429 8.55634874 5.18484118 7 3 C3.36194388 1.73253891 3.36194388 1.73253891 0 2 C0 1.34 0 0.68 0 0 Z " fill="#2B1102" transform="translate(283,464)"/>
<path d="M0 0 C1.66611905 -0.042721 3.33382885 -0.04063832 5 0 C6 1 6 1 6.0625 3.5625 C6.041875 4.366875 6.02125 5.17125 6 6 C5.2575 6.12375 4.515 6.2475 3.75 6.375 C1.19858515 6.95486701 -0.7267573 7.73708739 -3 9 C-2.67 6.69 -2.34 4.38 -2 2 C-1.34 2 -0.68 2 0 2 C0 1.34 0 0.68 0 0 Z " fill="#F8A22C" transform="translate(284,467)"/>
<path d="M0 0 C-0.99 0.66 -1.98 1.32 -3 2 C-2.34 2.33 -1.68 2.66 -1 3 C-1.33 3.99 -1.66 4.98 -2 6 C-2 5.34 -2 4.68 -2 4 C-6.95 5.485 -6.95 5.485 -12 7 C-12 6.34 -12 5.68 -12 5 C-13.32 4.67 -14.64 4.34 -16 4 C-13.71144298 3.13656269 -11.4198072 2.2840189 -9.125 1.4375 C-8.47402344 1.19064453 -7.82304687 0.94378906 -7.15234375 0.68945312 C-2.2265625 -1.11328125 -2.2265625 -1.11328125 0 0 Z " fill="#25170E" transform="translate(366,340)"/>
<path d="M0 0 C0.33 0.66 0.66 1.32 1 2 C-2.96 3.65 -6.92 5.3 -11 7 C-11 6.34 -11 5.68 -11 5 C-11.99 4.34 -12.98 3.68 -14 3 C-4.34519522 -1.90102291 -4.34519522 -1.90102291 0 0 Z " fill="#E5E8E7" transform="translate(310,191)"/>
<path d="M0 0 C3 1 3 1 4.4375 2.5625 C6.13676051 4.45137102 6.13676051 4.45137102 10 4 C9.125 8.75 9.125 8.75 8 11 C7.01 11 6.02 11 5 11 C3.61328125 9.35546875 3.61328125 9.35546875 2.3125 7.1875 C1.87550781 6.47980469 1.43851563 5.77210938 0.98828125 5.04296875 C0 3 0 3 0 0 Z " fill="#FB9E0E" transform="translate(177,477)"/>
<path d="M0 0 C2.31 0 4.62 0 7 0 C7.67154933 1.28913487 8.33708859 2.58140204 9 3.875 C9.37125 4.59429687 9.7425 5.31359375 10.125 6.0546875 C11 8 11 8 11 10 C10.34 10 9.68 10 9 10 C8.01 7.36 7.02 4.72 6 2 C4.35 2 2.7 2 1 2 C0.73445312 2.83144531 0.46890625 3.66289062 0.1953125 4.51953125 C-0.33449219 6.14955078 -0.33449219 6.14955078 -0.875 7.8125 C-1.22304687 8.89144531 -1.57109375 9.97039062 -1.9296875 11.08203125 C-3 14 -3 14 -5 17 C-5.66 17 -6.32 17 -7 17 C-5.24009216 11.08030998 -2.60305395 5.58365008 0 0 Z " fill="#D8933E" transform="translate(216,466)"/>
<path d="M0 0 C-5.10319795 4.09196518 -10.99042043 7.20755721 -17.625 6.75 C-18.40875 6.5025 -19.1925 6.255 -20 6 C-20 5.01 -20 4.02 -20 3 C-18.865625 3.0825 -17.73125 3.165 -16.5625 3.25 C-12.07289134 3.28994314 -8.90675716 1.84125111 -4.98046875 -0.22265625 C-3 -1 -3 -1 0 0 Z " fill="#C1C4C9" transform="translate(337,355)"/>
<path d="M0 0 C7.92 2.97 15.84 5.94 24 9 C19.39683212 10.15079197 17.41203623 9.52415797 13 8 C12.01 7.34 11.02 6.68 10 6 C8.845 5.67 7.69 5.34 6.5 5 C3 4 3 4 0 2 C0 1.34 0 0.68 0 0 Z " fill="#E4AD6A" transform="translate(363,211)"/>
<path d="M0 0 C4.62 0 9.24 0 14 0 C13.67 1.32 13.34 2.64 13 4 C9.04 4 5.08 4 1 4 C0.67 2.68 0.34 1.36 0 0 Z " fill="#D48C29" transform="translate(405,489)"/>
<path d="M0 0 C0.66 0.33 1.32 0.66 2 1 C1.21791649 3.79133871 0.38293093 6.44481903 -1 9 C-3.6875 10 -3.6875 10 -6 10 C-7.4606285 7.35261084 -8 6.10551666 -8 3 C-7.401875 3.350625 -6.80375 3.70125 -6.1875 4.0625 C-3.89186786 5.33304698 -3.89186786 5.33304698 -1 4 C-0.26676204 1.98491642 -0.26676204 1.98491642 0 0 Z " fill="#FA9C1A" transform="translate(381,477)"/>
<path d="M0 0 C0.33 1.32 0.66 2.64 1 4 C1.66 4 2.32 4 3 4 C3.625 5.8125 3.625 5.8125 4 8 C3.01 9.485 3.01 9.485 2 11 C-1.125 11.1875 -1.125 11.1875 -4 11 C-2.68 7.37 -1.36 3.74 0 0 Z " fill="#E39537" transform="translate(208,483)"/>
<path d="M0 0 C4.12751449 0.60698743 7.3321148 2.03810791 11 4 C11 4.99 11 5.98 11 7 C8.69 7.33 6.38 7.66 4 8 C3.67 7.01 3.34 6.02 3 5 C2.01 4.67 1.02 4.34 0 4 C0 2.68 0 1.36 0 0 Z " fill="#E9B86F" transform="translate(392,215)"/>
<path d="M0 0 C0.68578125 0.2784375 1.3715625 0.556875 2.078125 0.84375 C4.14139396 1.66023076 6.21558596 2.44936353 8.296875 3.21875 C9.43640625 3.6415625 10.5759375 4.064375 11.75 4.5 C12.89984375 4.9228125 14.0496875 5.345625 15.234375 5.78125 C18 7 18 7 19 9 C12.0886636 8.52877252 6.27795839 5.79363994 0 3 C0 2.01 0 1.02 0 0 Z " fill="#D0D0D2" transform="translate(299,351)"/>
<path d="M0 0 C2.31 0 4.62 0 7 0 C7 0.66 7 1.32 7 2 C5.02 2 3.04 2 1 2 C1 7.94 1 13.88 1 20 C-0.65 18.35 -2.3 16.7 -4 15 C-2.68 14.67 -1.36 14.34 0 14 C0 9.38 0 4.76 0 0 Z " fill="#341303" transform="translate(444,464)"/>
<path d="M0 0 C-1 3 -1 3 -2.671875 3.94921875 C-6.56333025 5.33170943 -9.80183483 6.39357798 -14 6 C-9.28030222 1.02518343 -6.83049018 -0.15178867 0 0 Z " fill="#170D09" transform="translate(354,345)"/>
<path d="M0 0 C-4.455 0.495 -4.455 0.495 -9 1 C-9 1.66 -9 2.32 -9 3 C-7.35 3.33 -5.7 3.66 -4 4 C-4.33 4.66 -4.66 5.32 -5 6 C-6.43931117 5.54738642 -7.87638999 5.08767021 -9.3125 4.625 C-10.11300781 4.36976563 -10.91351563 4.11453125 -11.73828125 3.8515625 C-14 3 -14 3 -17 1 C-14.92118505 0.44124338 -12.83669506 -0.09643187 -10.75 -0.625 C-9.58984375 -0.92664063 -8.4296875 -1.22828125 -7.234375 -1.5390625 C-4 -2 -4 -2 0 0 Z " fill="#CFA16C" transform="translate(262,221)"/>
<path d="M0 0 C1.32 0 2.64 0 4 0 C4.33 0.66 4.66 1.32 5 2 C7.52733235 2.65555119 7.52733235 2.65555119 10 3 C10 2.34 10 1.68 10 1 C9.34 0.67 8.68 0.34 8 0 C8.99 0 9.98 0 11 0 C11 1.32 11 2.64 11 4 C7.37 4.33 3.74 4.66 0 5 C-0.33 7.31 -0.66 9.62 -1 12 C-1.33 12 -1.66 12 -2 12 C-2.28571429 3.42857143 -2.28571429 3.42857143 0 0 Z " fill="#EDA238" transform="translate(343,478)"/>
<path d="M0 0 C1.09570312 0.00902344 2.19140625 0.01804687 3.3203125 0.02734375 C4.16335938 0.03894531 5.00640625 0.05054688 5.875 0.0625 C5.545 1.0525 5.215 2.0425 4.875 3.0625 C0.915 3.0625 -3.045 3.0625 -7.125 3.0625 C-7.455 2.4025 -7.785 1.7425 -8.125 1.0625 C-5.36047967 -0.31976016 -3.0788637 -0.03275387 0 0 Z " fill="#F9B13D" transform="translate(318.125,489.9375)"/>
<path d="M0 0 C-2.64110204 1.7607347 -5.03305734 3.00960644 -7.9375 4.25 C-8.79214844 4.62640625 -9.64679688 5.0028125 -10.52734375 5.390625 C-13 6 -13 6 -15.31640625 5.109375 C-15.87199219 4.74328125 -16.42757813 4.3771875 -17 4 C-14.92227529 3.13227971 -12.83756823 2.28126381 -10.75 1.4375 C-9.58984375 0.96183594 -8.4296875 0.48617188 -7.234375 -0.00390625 C-4.13733356 -0.95770524 -2.92678299 -1.20983356 0 0 Z " fill="#D3D6D7" transform="translate(340,359)"/>
<path d="M0 0 C0 0.99 0 1.98 0 3 C-4.62 4.65 -9.24 6.3 -14 8 C-14.66 7.34 -15.32 6.68 -16 6 C-13.7101766 4.9955866 -11.4183401 3.99632388 -9.125 3 C-8.14853516 2.57074219 -8.14853516 2.57074219 -7.15234375 2.1328125 C-2.2265625 0 -2.2265625 0 0 0 Z " fill="#212629" transform="translate(339,355)"/>
<path d="M0 0 C3.465 1.485 3.465 1.485 7 3 C7 4.32 7 5.64 7 7 C3.17902761 6.46930939 0.93828597 5.50298434 -2 3 C-1.34 2.01 -0.68 1.02 0 0 Z " fill="#DFD9CF" transform="translate(385,212)"/>
<path d="M0 0 C1.65 0 3.3 0 5 0 C7.60018816 3.90028225 7.15085514 7.47434569 7 12 C6.67 12 6.34 12 6 12 C5.89042969 11.36191406 5.78085937 10.72382813 5.66796875 10.06640625 C5.50941406 9.24011719 5.35085938 8.41382813 5.1875 7.5625 C4.96126953 6.32693359 4.96126953 6.32693359 4.73046875 5.06640625 C4.48941406 4.38449219 4.24835938 3.70257813 4 3 C3.01 2.67 2.02 2.34 1 2 C0.67 5.3 0.34 8.6 0 12 C-0.33 12 -0.66 12 -1 12 C-1.02712066 10.56260487 -1.04645067 9.12506137 -1.0625 7.6875 C-1.07410156 6.88699219 -1.08570313 6.08648437 -1.09765625 5.26171875 C-1 3 -1 3 0 0 Z " fill="#C5965B" transform="translate(391,256)"/>
<path d="M0 0 C1.10844919 3.32534757 0.84454356 5.62182575 0 9 C2.97 9 5.94 9 9 9 C9 9.33 9 9.66 9 10 C7.20841511 10.02696365 5.41671527 10.04637917 3.625 10.0625 C2.62726563 10.07410156 1.62953125 10.08570313 0.6015625 10.09765625 C-2 10 -2 10 -4 9 C-2.25 2.25 -2.25 2.25 0 0 Z " fill="#E69128" transform="translate(215,474)"/>
<path d="M0 0 C5.41798672 0.69165788 10.6822785 1.75799248 16 3 C15.67 3.66 15.34 4.32 15 5 C8.92671312 5.50610724 5.22771463 4.04157942 0 1 C0 0.67 0 0.34 0 0 Z " fill="#E6E6E7" transform="translate(309,361)"/>
<path d="M0 0 C3.2428329 3.72925783 5.5119901 8.30238735 7 13 C6.67 13.99 6.34 14.98 6 16 C4.5 14.75 4.5 14.75 3 13 C3 11.68 3 10.36 3 9 C2.34 9 1.68 9 1 9 C0.67 6.03 0.34 3.06 0 0 Z " fill="#DD9835" transform="translate(294,477)"/>
<path d="M0 0 C0.33 0 0.66 0 1 0 C1 2.64 1 5.28 1 8 C0.34 7.34 -0.32 6.68 -1 6 C-1.0825 6.78375 -1.165 7.5675 -1.25 8.375 C-2 11 -2 11 -4.0625 12.3125 C-5.0215625 12.6528125 -5.0215625 12.6528125 -6 13 C-4.58707905 8.1725201 -2.57025846 4.2837641 0 0 Z " fill="#341002" transform="translate(192,476)"/>
<path d="M0 0 C2.1640625 -0.29296875 2.1640625 -0.29296875 4.625 -0.1875 C5.44226563 -0.16042969 6.25953125 -0.13335937 7.1015625 -0.10546875 C8.04128906 -0.05326172 8.04128906 -0.05326172 9 0 C9 0.99 9 1.98 9 3 C5.37 3 1.74 3 -2 3 C-1.34 2.01 -0.68 1.02 0 0 Z " fill="#F7A537" transform="translate(346,467)"/>
<path d="M0 0 C3.63 0.66 7.26 1.32 11 2 C8 5 8 5 6 6 C3.875 5.0625 3.875 5.0625 2 4 C2 3.34 2 2.68 2 2 C1.34 2 0.68 2 0 2 C0 1.34 0 0.68 0 0 Z " fill="#150801" transform="translate(358,241)"/>
<path d="M0 0 C1.51865978 4.55597933 -0.5715291 7.12657855 -2.625 11.3125 C-3.07875 12.199375 -3.5325 13.08625 -4 14 C-2.68 14.33 -1.36 14.66 0 15 C-1.98 15 -3.96 15 -6 15 C-4.36041242 9.76727367 -2.61047965 4.84803364 0 0 Z " fill="#D79848" transform="translate(277,479)"/>
<path d="M0 0 C1.65 0 3.3 0 5 0 C4.67 0.66 4.34 1.32 4 2 C3.01 1.67 2.02 1.34 1 1 C1 3.64 1 6.28 1 9 C1.99 8.67 2.98 8.34 4 8 C3.67 10.31 3.34 12.62 3 15 C2.01 14.34 1.02 13.68 0 13 C-0.29296875 9.9609375 -0.29296875 9.9609375 -0.1875 6.375 C-0.16042969 5.18648438 -0.13335937 3.99796875 -0.10546875 2.7734375 C-0.07066406 1.85820312 -0.03585938 0.94296875 0 0 Z " fill="#F7A32B" transform="translate(241,467)"/>
<path d="M0 0 C-0.99 0.66 -1.98 1.32 -3 2 C-2.67 2.66 -2.34 3.32 -2 4 C-3.98 4.66 -5.96 5.32 -8 6 C-8 5.34 -8 4.68 -8 4 C-9.32 3.67 -10.64 3.34 -12 3 C-10.3789897 2.30314502 -8.75303934 1.61777139 -7.125 0.9375 C-6.22007812 0.55464844 -5.31515625 0.17179687 -4.3828125 -0.22265625 C-2 -1 -2 -1 0 0 Z " fill="#28170D" transform="translate(344,348)"/>
<path d="M0 0 C2.97 0.33 5.94 0.66 9 1 C9 1.99 9 2.98 9 4 C6.03 3.67 3.06 3.34 0 3 C0 2.01 0 1.02 0 0 Z " fill="#100501" transform="translate(340,235)"/>
<path d="M0 0 C0.33 0 0.66 0 1 0 C1 5.94 1 11.88 1 18 C0.67 18 0.34 18 0 18 C-0.33 14.04 -0.66 10.08 -1 6 C-1.99 6.495 -1.99 6.495 -3 7 C-1.125 1.125 -1.125 1.125 0 0 Z " fill="#421A00" transform="translate(386,476)"/>
<path d="M0 0 C0.66 0.66 1.32 1.32 2 2 C-1.63 1.67 -5.26 1.34 -9 1 C-9.33 1.99 -9.66 2.98 -10 4 C-10.99 4.33 -11.98 4.66 -13 5 C-12.06788763 2.66971908 -11.30996602 1.24108468 -9.3125 -0.3125 C-5.96517903 -1.30764948 -3.371157 -0.749146 0 0 Z " fill="#3B1803" transform="translate(324,471)"/>
<path d="M0 0 C10.55808656 0.77904328 10.55808656 0.77904328 15 3 C14.67 3.66 14.34 4.32 14 5 C12.22739369 4.54857225 10.4569632 4.08859477 8.6875 3.625 C7.20830078 3.24214844 7.20830078 3.24214844 5.69921875 2.8515625 C3 2 3 2 0 0 Z " fill="#D1A466" transform="translate(337,232)"/>
<path d="M0 0 C0 0.66 0 1.32 0 2 C-0.66 2 -1.32 2 -2 2 C-2 2.66 -2 3.32 -2 4 C-4.64 4.99 -7.28 5.98 -10 7 C-10 6.34 -10 5.68 -10 5 C-9.34 5 -8.68 5 -8 5 C-8 4.34 -8 3.68 -8 3 C-2.25 0 -2.25 0 0 0 Z " fill="#110601" transform="translate(300,200)"/>
<path d="M0 0 C3.3 0 6.6 0 10 0 C10 1.32 10 2.64 10 4 C8.35 4 6.7 4 5 4 C4.67 3.01 4.34 2.02 4 1 C2.68 0.67 1.36 0.34 0 0 Z " fill="#C88024" transform="translate(343,477)"/>
<path d="M0 0 C7.37531486 -0.3627204 7.37531486 -0.3627204 9.9375 1.125 C11.38591512 3.68102669 11.67815583 6.10340247 12 9 C9.66475218 6.74259377 7.81294927 4.7194239 6 2 C2.93443402 1.26656572 2.93443402 1.26656572 0 1 C0 0.67 0 0.34 0 0 Z " fill="#2B1001" transform="translate(240,465)"/>
<path d="M0 0 C0 0.66 0 1.32 0 2 C-1.26839526 2.50615298 -2.53983102 3.00469099 -3.8125 3.5 C-4.87404297 3.91765625 -4.87404297 3.91765625 -5.95703125 4.34375 C-8 5 -8 5 -11 5 C-11 4.34 -11 3.68 -11 3 C-9.73160474 2.49384702 -8.46016898 1.99530901 -7.1875 1.5 C-6.12595703 1.08234375 -6.12595703 1.08234375 -5.04296875 0.65625 C-3 0 -3 0 0 0 Z " fill="#DBD9DB" transform="translate(364,344)"/>
<path d="M0 0 C0.33 0 0.66 0 1 0 C1 2.64 1 5.28 1 8 C3.31 8 5.62 8 8 8 C5.4345406 10.5654594 3.52313332 10.54046087 0 11 C0 7.37 0 3.74 0 0 Z " fill="#E4B172" transform="translate(324,343)"/>
<path d="M0 0 C0.66 0.33 1.32 0.66 2 1 C-0.625 5.875 -0.625 5.875 -4 7 C-4 6.34 -4 5.68 -4 5 C-4.99 4.34 -5.98 3.68 -7 3 C-4.69631264 1.93347808 -2.35981813 0.93578995 0 0 Z " fill="#DCDCDD" transform="translate(303,191)"/>
<path d="M0 0 C0.66 0.33 1.32 0.66 2 1 C1.67 2.98 1.34 4.96 1 7 C-0.32 7 -1.64 7 -3 7 C-1.125 1.125 -1.125 1.125 0 0 Z " fill="#F79A2A" transform="translate(276,486)"/>
<path d="M0 0 C4.62 0 9.24 0 14 0 C14 0.33 14 0.66 14 1 C13.24074219 1.03738281 12.48148437 1.07476562 11.69921875 1.11328125 C10.70535156 1.17902344 9.71148437 1.24476563 8.6875 1.3125 C7.70136719 1.37050781 6.71523438 1.42851562 5.69921875 1.48828125 C2.75615543 2.04622813 1.81817001 2.68540132 0 5 C-0.33 4.34 -0.66 3.68 -1 3 C-0.67 2.01 -0.34 1.02 0 0 Z " fill="#2C0B00" transform="translate(279,488)"/>
<path d="M0 0 C1.98 0 3.96 0 6 0 C6 1.32 6 2.64 6 4 C3.69 4 1.38 4 -1 4 C-0.67 2.68 -0.34 1.36 0 0 Z " fill="#DE8F2F" transform="translate(471,467)"/>
<path d="M0 0 C3.72433382 1.2125738 7.37802806 2.50859979 11 4 C9.4375 5.1875 9.4375 5.1875 7 6 C3.25 4.625 3.25 4.625 0 3 C0 2.01 0 1.02 0 0 Z " fill="#D1D2D4" transform="translate(279,343)"/>
<path d="M0 0 C-3.12493704 3.12493704 -5.91645015 3.95911133 -10.3125 4.125 C-11.199375 4.08375 -12.08625 4.0425 -13 4 C-4.66666667 -1.55555556 -4.66666667 -1.55555556 0 0 Z " fill="#D4A66B" transform="translate(273,215)"/>
<path d="M0 0 C0.33 0.66 0.66 1.32 1 2 C1.66 2.33 2.32 2.66 3 3 C1.68 4.32 0.36 5.64 -1 7 C-1 6.34 -1 5.68 -1 5 C-1.66 5 -2.32 5 -3 5 C-3 3.68 -3 2.36 -3 1 C-2.01 0.67 -1.02 0.34 0 0 Z " fill="#F9A021" transform="translate(212,482)"/>
<path d="M0 0 C3.05082939 1.01694313 3.90372675 1.72144212 6 4 C6.66 4.66 7.32 5.32 8 6 C6.02 6.33 4.04 6.66 2 7 C0.5393715 4.35261084 0 3.10551666 0 0 Z " fill="#F69E25" transform="translate(177,477)"/>
<path d="M0 0 C1.65 0 3.3 0 5 0 C5.66 1.65 6.32 3.3 7 5 C4.625 4.75 4.625 4.75 2 4 C0.6875 1.9375 0.6875 1.9375 0 0 Z " fill="#F09F2F" transform="translate(432,476)"/>
<path d="M0 0 C2.97 0.495 2.97 0.495 6 1 C6 2.32 6 3.64 6 5 C4.02 4.34 2.04 3.68 0 3 C0 2.01 0 1.02 0 0 Z " fill="#E99931" transform="translate(322,468)"/>
<path d="M0 0 C3.63 0.66 7.26 1.32 11 2 C10.34 2.66 9.68 3.32 9 4 C2.91304348 3.45652174 2.91304348 3.45652174 0 2 C0 1.34 0 0.68 0 0 Z " fill="#171717" transform="translate(314,360)"/>
<path d="M0 0 C1.98 0.99 3.96 1.98 6 3 C6 3.33 6 3.66 6 4 C4.35 4 2.7 4 1 4 C0.67 2.68 0.34 1.36 0 0 Z M-5 1 C-4.34 1 -3.68 1 -3 1 C-3 1.66 -3 2.32 -3 3 C-1.68 3.66 -0.36 4.32 1 5 C0.01 5.33 -0.98 5.66 -2 6 C-2.99 4.35 -3.98 2.7 -5 1 Z " fill="#DFA040" transform="translate(311,486)"/>
<path d="M0 0 C0.66 0.33 1.32 0.66 2 1 C0.68 4.3 -0.64 7.6 -2 11 C-2.33 11 -2.66 11 -3 11 C-3.32613618 6.32538149 -2.70582788 3.83325617 0 0 Z " fill="#290E01" transform="translate(214,466)"/>
<path d="M0 0 C2.04296875 0.4609375 2.04296875 0.4609375 4.1875 1.375 C4.90292969 1.67148437 5.61835938 1.96796875 6.35546875 2.2734375 C7.16951172 2.63308594 7.16951172 2.63308594 8 3 C7.67 3.66 7.34 4.32 7 5 C3.7 4.01 0.4 3.02 -3 2 C-2.01 1.34 -1.02 0.68 0 0 Z " fill="#DADBDC" transform="translate(302,357)"/>
<path d="M0 0 C2.97 0.495 2.97 0.495 6 1 C6 1.99 6 2.98 6 4 C4.02 4 2.04 4 0 4 C0 2.68 0 1.36 0 0 Z " fill="#D6CAC0" transform="translate(397,218)"/>
<path d="M0 0 C0.66 0.33 1.32 0.66 2 1 C2 2.65 2 4.3 2 6 C0.68 6 -0.64 6 -2 6 C-1.125 1.125 -1.125 1.125 0 0 Z " fill="#0B0000" transform="translate(219,476)"/>
<path d="M0 0 C2.31 0.66 4.62 1.32 7 2 C6.67 2.99 6.34 3.98 6 5 C3.36 4.01 0.72 3.02 -2 2 C-1.34 1.34 -0.68 0.68 0 0 Z " fill="#2D2D2C" transform="translate(307,357)"/>
<path d="M0 0 C2.25 0.25 2.25 0.25 4 1 C2.8125 2.5 2.8125 2.5 1 4 C-1.6875 4.1875 -1.6875 4.1875 -4 4 C-2.25 1.9375 -2.25 1.9375 0 0 Z " fill="#0B0503" transform="translate(344,347)"/>
<path d="M0 0 C1.32 0 2.64 0 4 0 C4.66 1.65 5.32 3.3 6 5 C4.35 5 2.7 5 1 5 C0.67 3.35 0.34 1.7 0 0 Z " fill="#F4AE36" transform="translate(295,489)"/>
<path d="M0 0 C-0.33 1.65 -0.66 3.3 -1 5 C-2.32 5.33 -3.64 5.66 -5 6 C-4.625 3.5625 -4.625 3.5625 -4 1 C-2 0 -2 0 0 0 Z " fill="#DCDCDB" transform="translate(264,209)"/>
<path d="M0 0 C0.66 0 1.32 0 2 0 C1.34 1.98 0.68 3.96 0 6 C-0.99 6 -1.98 6 -3 6 C-3.33 5.01 -3.66 4.02 -4 3 C-3.01 3 -2.02 3 -1 3 C-0.67 2.01 -0.34 1.02 0 0 Z " fill="#290E00" transform="translate(379,474)"/>
<path d="M0 0 C1.32 0.33 2.64 0.66 4 1 C3.42655063 3.86724686 3.1385485 4.8614515 1 7 C0.67 4.69 0.34 2.38 0 0 Z " fill="#F79F25" transform="translate(290,475)"/>
<path d="M0 0 C1.32 0.33 2.64 0.66 4 1 C3.25 3.4375 3.25 3.4375 2 6 C-0.125 6.8125 -0.125 6.8125 -2 7 C-1.34 6.67 -0.68 6.34 0 6 C0.75243555 4.07361988 0.75243555 4.07361988 1 2 C0.67 1.34 0.34 0.68 0 0 Z " fill="#280E00" transform="translate(328,467)"/>
<path d="M0 0 C0.33 0.99 0.66 1.98 1 3 C-1.64 3.33 -4.28 3.66 -7 4 C-6 2 -6 2 -2.9375 0.875 C-1.4834375 0.441875 -1.4834375 0.441875 0 0 Z " fill="#E0E2E4" transform="translate(363,348)"/>
</svg>
